<svg id="svg" xmlns="http://www.w3.org/2000/svg" xmlns:xlink="http://www.w3.org/1999/xlink" width="400" height="225" viewBox="0, 0, 400,225"><g id="svgg"><path id="path0" d="M53.183 61.052 C 46.153 61.526,37.661 63.811,32.812 66.533 C 32.612 66.646,31.872 67.052,31.169 67.435 C 27.328 69.531,24.354 71.673,20.530 75.100 C 12.674 82.142,6.480 93.381,4.541 104.115 C 3.764 108.415,3.395 114.787,3.761 117.596 C 3.802 117.916,3.860 118.529,3.890 118.958 C 4.003 120.633,4.457 123.365,5.157 126.589 C 5.179 126.689,5.220 126.810,5.249 126.857 C 5.278 126.903,5.323 127.056,5.348 127.195 C 5.397 127.459,5.532 127.904,6.325 130.417 C 7.366 133.716,9.142 137.615,11.188 141.094 C 11.680 141.929,13.380 144.468,13.978 145.260 C 14.195 145.547,14.440 145.875,14.524 145.990 C 20.022 153.515,29.362 160.321,38.802 163.681 C 41.134 164.511,42.804 164.043,43.386 162.394 C 43.601 161.784,43.615 151.688,43.401 151.606 C 43.330 151.579,42.933 151.628,42.520 151.715 C 36.990 152.878,31.742 151.938,28.497 149.202 C 27.072 148.002,26.263 146.816,25.310 144.531 C 24.103 141.640,22.122 139.114,19.930 137.674 C 17.619 136.155,17.168 135.150,18.610 134.730 C 21.634 133.851,25.958 136.237,28.206 140.025 C 29.403 142.043,31.030 143.673,32.748 144.577 C 33.226 144.828,33.313 144.909,33.161 144.963 C 32.265 145.281,32.323 146.142,33.269 146.571 C 34.301 147.040,35.234 146.430,34.757 145.598 C 34.596 145.317,34.596 145.302,34.767 145.354 C 35.296 145.515,36.011 145.626,36.926 145.690 L 37.948 145.762 37.530 145.959 C 36.413 146.484,37.071 147.731,38.343 147.498 C 39.537 147.280,39.564 146.114,38.382 145.852 L 37.969 145.761 38.490 145.688 C 40.411 145.420,41.249 145.221,42.777 144.669 L 43.627 144.362 43.744 143.665 C 44.155 141.234,45.228 138.940,46.553 137.661 C 47.107 137.125,47.107 137.125,46.224 137.050 C 43.682 136.833,39.094 135.729,36.563 134.723 C 27.496 131.123,22.927 123.274,22.918 111.287 C 22.914 106.113,24.568 101.383,27.645 97.768 C 28.063 97.278,28.329 96.876,28.300 96.779 C 28.274 96.688,28.136 96.216,27.992 95.729 C 26.957 92.217,27.136 88.089,28.502 83.958 C 28.829 82.970,28.903 82.917,29.954 82.917 C 33.106 82.917,38.204 84.932,42.610 87.921 C 43.202 88.323,43.475 88.414,43.750 88.302 C 44.089 88.164,45.145 87.930,45.219 87.976 C 45.263 88.002,45.324 87.982,45.356 87.930 C 45.388 87.879,45.630 87.804,45.894 87.765 C 46.157 87.725,46.474 87.671,46.598 87.644 C 47.333 87.484,48.356 87.304,48.842 87.248 C 49.150 87.212,49.431 87.166,49.467 87.144 C 49.502 87.123,49.904 87.074,50.360 87.035 C 50.816 86.996,51.215 86.949,51.246 86.931 C 51.424 86.826,54.075 86.719,56.510 86.719 C 59.449 86.719,61.076 86.801,62.756 87.035 C 62.982 87.067,63.381 87.116,63.641 87.145 C 63.901 87.173,64.513 87.268,65.000 87.356 C 65.487 87.443,66.049 87.539,66.250 87.570 C 66.451 87.600,67.365 87.802,68.281 88.017 C 69.198 88.233,69.963 88.369,69.982 88.320 C 70.035 88.183,72.481 86.692,74.121 85.796 C 77.473 83.967,80.164 83.075,82.716 82.949 C 84.310 82.870,84.259 82.835,84.774 84.409 C 86.064 88.358,86.158 92.627,85.032 96.191 C 84.855 96.751,84.807 97.036,84.885 97.062 C 85.027 97.110,86.561 99.151,87.209 100.156 C 89.215 103.263,90.233 107.337,90.151 111.927 C 89.882 127.077,82.806 134.905,67.552 136.927 C 65.916 137.143,65.962 137.116,66.465 137.571 C 66.996 138.050,67.682 139.008,68.118 139.878 C 68.414 140.467,69.080 142.150,69.044 142.214 C 69.036 142.228,69.081 142.404,69.144 142.604 C 69.208 142.805,69.283 143.109,69.311 143.281 C 69.340 143.453,69.424 143.875,69.499 144.219 C 69.605 144.705,69.635 146.758,69.635 153.490 C 69.635 163.159,69.593 162.593,70.375 163.374 C 71.753 164.750,75.025 163.936,81.125 160.700 C 98.711 151.371,109.415 133.671,109.425 113.906 C 109.427 110.436,109.392 109.863,109.002 106.927 C 105.326 79.305,80.845 59.185,53.183 61.052 M154.011 75.958 C 139.179 76.697,130.307 84.738,127.196 100.260 C 126.673 102.872,126.581 103.500,126.282 106.510 C 126.091 108.425,126.017 116.628,126.172 118.698 C 126.281 120.157,126.560 122.565,126.727 123.490 C 128.001 130.540,130.133 135.853,133.064 139.282 C 134.751 141.255,134.907 141.415,136.341 142.635 C 139.622 145.428,144.190 147.537,148.802 148.389 C 149.510 148.519,151.014 148.757,151.771 148.858 C 152.625 148.972,152.812 148.994,154.063 149.127 C 155.601 149.290,162.750 149.206,163.687 149.014 C 163.808 148.989,164.168 148.945,164.487 148.915 C 164.806 148.886,165.135 148.840,165.216 148.813 C 165.298 148.786,165.576 148.737,165.833 148.705 C 166.091 148.672,166.501 148.605,166.745 148.555 C 166.988 148.506,167.188 148.484,167.188 148.507 C 167.188 148.530,167.270 148.506,167.370 148.453 C 167.470 148.400,167.740 148.330,167.969 148.298 C 168.576 148.211,171.252 147.461,172.495 147.028 C 174.543 146.315,178.293 144.487,178.925 143.894 L 179.271 143.569 179.271 125.842 C 179.271 106.185,179.324 107.642,178.590 107.336 C 177.990 107.085,155.505 107.118,155.000 107.370 C 154.253 107.743,154.269 107.602,154.274 113.987 C 154.278 120.148,154.270 120.062,154.848 120.419 C 155.166 120.616,155.381 120.625,159.726 120.625 L 164.271 120.625 164.271 127.491 L 164.271 134.358 163.776 134.464 C 161.330 134.986,155.646 135.139,153.438 134.741 C 145.071 133.232,141.134 125.694,141.386 111.667 C 141.541 103.052,143.274 97.645,147.022 94.084 C 148.846 92.352,151.871 90.906,154.339 90.586 C 154.577 90.555,154.882 90.505,155.016 90.475 C 155.151 90.445,155.471 90.389,155.729 90.351 C 156.436 90.248,162.744 90.218,163.698 90.313 C 164.156 90.359,164.838 90.425,165.214 90.460 C 165.811 90.516,166.990 90.697,167.969 90.883 C 168.914 91.062,169.801 91.299,171.245 91.756 C 173.780 92.560,173.586 92.788,174.787 87.593 C 175.296 85.393,175.903 82.835,176.137 81.907 C 176.668 79.799,176.645 79.718,175.313 78.975 C 171.454 76.823,162.395 75.540,154.011 75.958 M246.290 78.521 C 246.169 78.538,245.935 78.694,245.770 78.866 L 245.469 79.180 245.417 113.145 L 245.365 147.109 245.691 147.487 L 246.018 147.865 252.749 147.893 C 258.641 147.918,259.520 147.901,259.791 147.761 C 260.458 147.416,260.417 148.422,260.417 132.557 L 260.417 118.125 270.313 118.125 L 280.210 118.125 280.208 132.620 C 280.205 148.560,280.158 147.411,280.833 147.760 C 281.377 148.042,294.473 147.944,294.795 147.656 C 295.345 147.166,295.313 149.322,295.312 113.154 C 295.312 81.352,295.302 79.512,295.130 79.167 C 294.779 78.463,295.046 78.487,287.619 78.490 L 280.919 78.492 280.564 78.880 L 280.208 79.268 280.208 91.821 L 280.208 104.375 270.313 104.375 L 260.417 104.375 260.415 91.901 C 260.413 78.479,260.441 79.138,259.863 78.709 C 259.597 78.511,247.529 78.344,246.290 78.521 M352.228 78.521 C 351.935 78.563,351.474 79.056,351.373 79.435 C 351.293 79.734,351.294 146.763,351.374 147.099 C 351.564 147.894,351.721 147.917,356.936 147.917 C 362.794 147.917,362.383 148.092,362.717 145.453 C 362.788 144.889,362.861 144.409,362.879 144.386 C 362.897 144.364,363.158 144.531,363.461 144.758 C 364.789 145.753,366.088 146.508,367.539 147.128 C 370.798 148.519,374.708 149.264,378.435 149.203 C 380.187 149.175,380.427 149.156,382.135 148.916 C 391.887 147.542,396.347 139.398,396.353 122.956 C 396.356 113.282,394.582 107.453,390.361 103.272 C 385.448 98.406,375.855 97.659,367.824 101.517 C 367.057 101.886,366.412 102.187,366.392 102.188 C 366.371 102.188,366.354 97.013,366.354 90.688 L 366.354 79.189 366.052 78.865 C 365.886 78.687,365.687 78.536,365.609 78.529 C 365.291 78.500,352.430 78.492,352.228 78.521 M193.281 80.069 C 184.823 80.853,182.915 92.885,190.729 96.168 C 196.359 98.534,202.238 94.612,202.239 88.490 C 202.240 83.423,198.188 79.614,193.281 80.069 M214.388 87.082 C 213.708 87.249,213.750 86.783,213.750 94.216 L 213.750 100.934 213.516 100.987 C 211.999 101.334,207.426 102.436,207.013 102.555 C 206.014 102.842,206.042 102.691,206.042 107.804 C 206.042 113.720,205.565 113.125,210.303 113.125 L 213.739 113.125 213.777 124.401 C 213.798 130.603,213.844 135.794,213.878 135.938 C 213.913 136.081,213.997 136.549,214.065 136.979 C 214.812 141.725,217.233 145.322,220.938 147.187 C 225.307 149.387,232.693 149.744,238.250 148.024 C 239.458 147.649,239.375 148.070,239.375 142.319 L 239.375 137.375 239.007 137.007 L 238.639 136.639 237.418 136.731 C 231.980 137.141,229.535 136.195,228.788 133.390 C 228.676 132.968,228.648 130.922,228.647 122.995 L 228.646 113.125 233.528 113.125 C 239.013 113.125,238.781 113.158,239.127 112.330 C 239.340 111.821,239.338 101.717,239.126 101.208 C 238.828 100.496,239.031 100.521,233.574 100.521 L 228.652 100.521 228.623 94.013 L 228.594 87.506 228.358 87.270 L 228.122 87.034 221.363 87.032 C 217.646 87.030,214.507 87.053,214.388 87.082 M186.897 100.779 C 186.321 101.263,186.349 99.987,186.379 124.237 L 186.406 146.860 186.625 147.154 C 187.175 147.891,186.881 147.859,193.646 147.917 C 200.339 147.974,200.563 147.958,201.060 147.406 C 201.482 146.939,201.469 147.738,201.437 123.663 L 201.406 101.129 201.066 100.825 L 200.726 100.521 193.965 100.521 L 187.203 100.521 186.897 100.779 M301.746 100.929 L 301.406 101.233 301.406 117.778 C 301.406 126.878,301.439 134.768,301.479 135.313 C 301.685 138.114,302.362 140.433,303.654 142.765 C 304.362 144.043,305.198 144.993,306.563 146.070 C 308.090 147.275,310.141 148.152,312.697 148.691 C 313.968 148.960,314.167 148.989,315.625 149.129 C 316.613 149.224,320.802 149.231,321.563 149.139 C 325.854 148.619,329.900 147.216,333.757 144.911 L 334.129 144.689 334.311 145.908 C 334.506 147.217,334.672 147.621,335.094 147.813 C 335.584 148.036,343.921 147.958,344.318 147.726 C 344.930 147.368,344.893 148.897,344.894 124.182 L 344.896 101.333 344.542 100.979 L 344.187 100.625 337.421 100.625 L 330.655 100.625 330.379 100.881 C 329.882 101.342,329.894 100.888,329.900 118.159 L 329.906 134.635 329.510 134.877 C 324.902 137.694,318.660 137.571,317.238 134.635 C 316.579 133.277,316.624 134.424,316.564 117.135 C 316.523 105.107,316.481 101.355,316.384 101.187 C 316.051 100.605,316.321 100.625,308.912 100.625 L 302.087 100.625 301.746 100.929 M376.146 111.717 C 379.905 112.731,381.446 116.250,381.437 123.802 C 381.425 134.440,379.818 137.060,373.438 136.842 C 371.085 136.762,369.122 136.279,367.083 135.278 L 366.198 134.844 366.171 124.210 L 366.145 113.576 367.369 112.997 C 369.071 112.192,370.445 111.774,371.927 111.609 C 372.271 111.571,372.573 111.520,372.598 111.497 C 372.725 111.377,375.532 111.551,376.146 111.717 M22.138 135.554 C 21.718 136.195,22.953 136.947,23.476 136.369 C 23.821 135.988,23.416 135.436,22.723 135.343 C 22.367 135.295,22.290 135.323,22.138 135.554 M24.851 137.247 C 24.570 137.528,24.648 138.003,25.042 138.396 C 25.798 139.152,26.711 138.606,26.184 137.712 C 25.858 137.161,25.175 136.923,24.851 137.247 M26.618 139.912 C 25.862 140.506,27.136 142.160,27.907 141.586 C 28.432 141.196,28.258 140.332,27.568 139.906 C 27.124 139.631,26.974 139.632,26.618 139.912 M29.170 143.509 C 29.049 143.662,28.976 143.854,29.007 143.934 C 29.037 144.014,29.063 144.134,29.063 144.201 C 29.063 144.368,29.585 144.949,29.863 145.091 C 30.815 145.581,31.559 144.673,30.873 143.858 C 30.307 143.186,29.547 143.029,29.170 143.509 M41.825 146.066 C 41.058 146.511,41.114 147.232,41.937 147.503 C 42.672 147.746,43.646 147.244,43.646 146.623 C 43.646 145.907,42.631 145.597,41.825 146.066 " stroke="none" fill="#fff" fill-rule="evenodd"></path></g></svg>