<svg id="visual" viewBox="0 0 960 250" width="960" height="250" xmlns="http://www.w3.org/2000/svg" xmlns:xlink="http://www.w3.org/1999/xlink" version="1.1"><path d="M0 51L16 52.3C32 53.7 64 56.3 96 53.5C128 50.7 160 42.3 192 37.7C224 33 256 32 288 36.5C320 41 352 51 384 55.2C416 59.3 448 57.7 480 51.8C512 46 544 36 576 32.7C608 29.3 640 32.7 672 38.2C704 43.7 736 51.3 768 49.3C800 47.3 832 35.7 864 30.7C896 25.7 928 27.3 944 28.2L960 29L960 0L944 0C928 0 896 0 864 0C832 0 800 0 768 0C736 0 704 0 672 0C640 0 608 0 576 0C544 0 512 0 480 0C448 0 416 0 384 0C352 0 320 0 288 0C256 0 224 0 192 0C160 0 128 0 96 0C64 0 32 0 16 0L0 0Z" fill="#151515"></path><path d="M0 91L16 88.2C32 85.3 64 79.7 96 73.8C128 68 160 62 192 59.5C224 57 256 58 288 63.8C320 69.7 352 80.3 384 86.2C416 92 448 93 480 86.3C512 79.7 544 65.3 576 61.5C608 57.7 640 64.3 672 71.8C704 79.3 736 87.7 768 86C800 84.3 832 72.7 864 65.2C896 57.7 928 54.3 944 52.7L960 51L960 27L944 26.2C928 25.3 896 23.7 864 28.7C832 33.7 800 45.3 768 47.3C736 49.3 704 41.7 672 36.2C640 30.7 608 27.3 576 30.7C544 34 512 44 480 49.8C448 55.7 416 57.3 384 53.2C352 49 320 39 288 34.5C256 30 224 31 192 35.7C160 40.3 128 48.7 96 51.5C64 54.3 32 51.7 16 50.3L0 49Z" fill="#343a3c"></path><path d="M0 136L16 135.2C32 134.3 64 132.7 96 133.5C128 134.3 160 137.7 192 132.3C224 127 256 113 288 109.7C320 106.3 352 113.7 384 118.7C416 123.7 448 126.3 480 133.8C512 141.3 544 153.7 576 154C608 154.3 640 142.7 672 139.3C704 136 736 141 768 134.8C800 128.7 832 111.3 864 106C896 100.7 928 107.3 944 110.7L960 114L960 49L944 50.7C928 52.3 896 55.7 864 63.2C832 70.7 800 82.3 768 84C736 85.7 704 77.3 672 69.8C640 62.3 608 55.7 576 59.5C544 63.3 512 77.7 480 84.3C448 91 416 90 384 84.2C352 78.3 320 67.7 288 61.8C256 56 224 55 192 57.5C160 60 128 66 96 71.8C64 77.7 32 83.3 16 86.2L0 89Z" fill="#556269"></path><path d="M0 216L16 211C32 206 64 196 96 191.8C128 187.7 160 189.3 192 189.8C224 190.3 256 189.7 288 191C320 192.3 352 195.7 384 199.8C416 204 448 209 480 211.5C512 214 544 214 576 212.7C608 211.3 640 208.7 672 207.3C704 206 736 206 768 201.8C800 197.7 832 189.3 864 185.2C896 181 928 181 944 181L960 181L960 112L944 108.7C928 105.3 896 98.7 864 104C832 109.3 800 126.7 768 132.8C736 139 704 134 672 137.3C640 140.7 608 152.3 576 152C544 151.7 512 139.3 480 131.8C448 124.3 416 121.7 384 116.7C352 111.7 320 104.3 288 107.7C256 111 224 125 192 130.3C160 135.7 128 132.3 96 131.5C64 130.7 32 132.3 16 133.2L0 134Z" fill="#798e98"></path><path d="M0 234L16 230.7C32 227.3 64 220.7 96 219C128 217.3 160 220.7 192 218.5C224 216.3 256 208.7 288 209C320 209.3 352 217.7 384 222.7C416 227.7 448 229.3 480 229.3C512 229.3 544 227.7 576 228.2C608 228.7 640 231.3 672 233C704 234.7 736 235.3 768 231.5C800 227.7 832 219.3 864 216C896 212.7 928 214.3 944 215.2L960 216L960 179L944 179C928 179 896 179 864 183.2C832 187.3 800 195.7 768 199.8C736 204 704 204 672 205.3C640 206.7 608 209.3 576 210.7C544 212 512 212 480 209.5C448 207 416 202 384 197.8C352 193.7 320 190.3 288 189C256 187.7 224 188.3 192 187.8C160 187.3 128 185.7 96 189.8C64 194 32 204 16 209L0 214Z" fill="#9fbdca"></path><path d="M0 251L16 251C32 251 64 251 96 251C128 251 160 251 192 251C224 251 256 251 288 251C320 251 352 251 384 251C416 251 448 251 480 251C512 251 544 251 576 251C608 251 640 251 672 251C704 251 736 251 768 251C800 251 832 251 864 251C896 251 928 251 944 251L960 251L960 214L944 213.2C928 212.3 896 210.7 864 214C832 217.3 800 225.7 768 229.5C736 233.3 704 232.7 672 231C640 229.3 608 226.7 576 226.2C544 225.7 512 227.3 480 227.3C448 227.3 416 225.7 384 220.7C352 215.7 320 207.3 288 207C256 206.7 224 214.3 192 216.5C160 218.7 128 215.3 96 217C64 218.7 32 225.3 16 228.7L0 232Z" fill="#c7eeff"></path></svg>