<svg id="visual" viewBox="0 0 960 250" width="960" height="250" xmlns="http://www.w3.org/2000/svg" xmlns:xlink="http://www.w3.org/1999/xlink" version="1.1"><path d="M0 51L16 46.5C32 42 64 33 96 28.8C128 24.7 160 25.3 192 26.2C224 27 256 28 288 28C320 28 352 27 384 30.3C416 33.7 448 41.3 480 43.8C512 46.3 544 43.7 576 39.8C608 36 640 31 672 33.2C704 35.3 736 44.7 768 44.3C800 44 832 34 864 29C896 24 928 24 944 24L960 24L960 0L944 0C928 0 896 0 864 0C832 0 800 0 768 0C736 0 704 0 672 0C640 0 608 0 576 0C544 0 512 0 480 0C448 0 416 0 384 0C352 0 320 0 288 0C256 0 224 0 192 0C160 0 128 0 96 0C64 0 32 0 16 0L0 0Z" fill="#c7eeff"></path><path d="M0 69L16 67.3C32 65.7 64 62.3 96 57.7C128 53 160 47 192 45.7C224 44.3 256 47.7 288 48.2C320 48.7 352 46.3 384 50.2C416 54 448 64 480 67.3C512 70.7 544 67.3 576 63.5C608 59.7 640 55.3 672 55.7C704 56 736 61 768 59.8C800 58.7 832 51.3 864 49.7C896 48 928 52 944 54L960 56L960 22L944 22C928 22 896 22 864 27C832 32 800 42 768 42.3C736 42.7 704 33.3 672 31.2C640 29 608 34 576 37.8C544 41.7 512 44.3 480 41.8C448 39.3 416 31.7 384 28.3C352 25 320 26 288 26C256 26 224 25 192 24.2C160 23.3 128 22.7 96 26.8C64 31 32 40 16 44.5L0 49Z" fill="#9fbdca"></path><path d="M0 159L16 157.7C32 156.3 64 153.7 96 146.5C128 139.3 160 127.7 192 129.3C224 131 256 146 288 144.8C320 143.7 352 126.3 384 118.5C416 110.7 448 112.3 480 116C512 119.7 544 125.3 576 132.8C608 140.3 640 149.7 672 150.2C704 150.7 736 142.3 768 139.8C800 137.3 832 140.7 864 141.8C896 143 928 142 944 141.5L960 141L960 54L944 52C928 50 896 46 864 47.7C832 49.3 800 56.7 768 57.8C736 59 704 54 672 53.7C640 53.3 608 57.7 576 61.5C544 65.3 512 68.7 480 65.3C448 62 416 52 384 48.2C352 44.3 320 46.7 288 46.2C256 45.7 224 42.3 192 43.7C160 45 128 51 96 55.7C64 60.3 32 63.7 16 65.3L0 67Z" fill="#798e98"></path><path d="M0 174L16 176C32 178 64 182 96 175.7C128 169.3 160 152.7 192 150.7C224 148.7 256 161.3 288 161.8C320 162.3 352 150.7 384 142.7C416 134.7 448 130.3 480 131.2C512 132 544 138 576 145.5C608 153 640 162 672 162.8C704 163.7 736 156.3 768 155.2C800 154 832 159 864 163.5C896 168 928 172 944 174L960 176L960 139L944 139.5C928 140 896 141 864 139.8C832 138.7 800 135.3 768 137.8C736 140.3 704 148.7 672 148.2C640 147.7 608 138.3 576 130.8C544 123.3 512 117.7 480 114C448 110.3 416 108.7 384 116.5C352 124.3 320 141.7 288 142.8C256 144 224 129 192 127.3C160 125.7 128 137.3 96 144.5C64 151.7 32 154.3 16 155.7L0 157Z" fill="#556269"></path><path d="M0 211L16 212.7C32 214.3 64 217.7 96 209.3C128 201 160 181 192 178.2C224 175.3 256 189.7 288 190.5C320 191.3 352 178.7 384 174.5C416 170.3 448 174.7 480 176.8C512 179 544 179 576 183.5C608 188 640 197 672 199.8C704 202.7 736 199.3 768 198.2C800 197 832 198 864 201C896 204 928 209 944 211.5L960 214L960 174L944 172C928 170 896 166 864 161.5C832 157 800 152 768 153.2C736 154.3 704 161.7 672 160.8C640 160 608 151 576 143.5C544 136 512 130 480 129.2C448 128.3 416 132.7 384 140.7C352 148.7 320 160.3 288 159.8C256 159.3 224 146.7 192 148.7C160 150.7 128 167.3 96 173.7C64 180 32 176 16 174L0 172Z" fill="#343a3c"></path><path d="M0 251L16 251C32 251 64 251 96 251C128 251 160 251 192 251C224 251 256 251 288 251C320 251 352 251 384 251C416 251 448 251 480 251C512 251 544 251 576 251C608 251 640 251 672 251C704 251 736 251 768 251C800 251 832 251 864 251C896 251 928 251 944 251L960 251L960 212L944 209.5C928 207 896 202 864 199C832 196 800 195 768 196.2C736 197.3 704 200.7 672 197.8C640 195 608 186 576 181.5C544 177 512 177 480 174.8C448 172.7 416 168.3 384 172.5C352 176.7 320 189.3 288 188.5C256 187.7 224 173.3 192 176.2C160 179 128 199 96 207.3C64 215.7 32 212.3 16 210.7L0 209Z" fill="#151515"></path></svg>