<?xml version="1.0" standalone="no"?>
<!DOCTYPE svg PUBLIC "-//W3C//DTD SVG 20010904//EN"
 "http://www.w3.org/TR/2001/REC-SVG-20010904/DTD/svg10.dtd">
<svg version="1.0" xmlns="http://www.w3.org/2000/svg"
 width="580.000000pt" height="386.000000pt" viewBox="0 0 580.000000 386.000000"
 preserveAspectRatio="xMidYMid meet">

<g transform="translate(0.000000,386.000000) scale(0.100000,-0.100000)"
fill="#000000" stroke="none">
<path d="M920 3288 c0 -122 59 -264 151 -362 55 -59 168 -143 266 -196 24 -13
41 -25 39 -27 -9 -9 -545 240 -638 297 -48 30 -49 30 -43 8 31 -104 107 -230
179 -296 75 -69 237 -140 466 -204 42 -12 32 -13 -135 -18 l-180 -5 50 -33
c103 -68 208 -94 382 -96 67 0 118 -5 114 -9 -5 -5 -46 -30 -92 -57 l-84 -49
48 -21 c26 -12 73 -26 105 -31 129 -23 306 -59 310 -64 3 -3 -4 -15 -16 -28
-12 -13 -22 -30 -22 -38 0 -8 34 -45 75 -82 124 -113 134 -120 173 -122 35 -3
37 -4 34 -33 -3 -26 5 -37 60 -83 73 -61 112 -79 168 -79 37 0 40 -2 30 -19
-17 -32 -12 -38 48 -61 31 -12 67 -26 80 -31 13 -5 22 -17 22 -30 0 -12 9 -37
20 -55 23 -36 63 -54 212 -95 77 -21 88 -27 88 -46 0 -22 -3 -23 -84 -22 -47
0 -90 -2 -95 -6 -6 -3 -11 -21 -11 -38 l0 -32 -129 -42 c-153 -50 -221 -80
-221 -99 0 -9 13 -14 38 -15 l37 0 -51 -18 c-82 -30 -116 -50 -112 -69 3 -14
15 -17 58 -17 30 0 68 4 83 8 25 7 27 6 18 -11 -20 -37 23 -54 103 -42 42 6
45 5 43 -14 -2 -18 3 -20 27 -18 48 6 216 58 302 94 75 32 81 33 116 20 43
-17 62 -56 52 -109 -8 -41 4 -42 64 -8 40 23 42 23 42 4 0 -23 -2 -23 54 1
l46 19 0 -40 c0 -22 -7 -56 -15 -76 -8 -19 -15 -39 -15 -43 0 -5 47 -43 105
-85 58 -42 105 -80 105 -85 0 -4 -12 -11 -26 -14 -32 -8 -74 -49 -74 -72 0
-12 4 -14 13 -7 6 6 30 14 52 17 22 4 59 16 82 27 l43 21 75 -23 c42 -12 79
-27 83 -33 3 -6 9 -29 12 -51 l6 -40 19 37 c15 30 16 42 7 62 -11 24 -10 24
19 14 22 -7 32 -19 36 -41 6 -28 7 -29 20 -12 7 11 13 29 13 41 0 26 -54 52
-191 89 -112 31 -140 44 -197 93 l-44 38 22 64 c34 101 40 104 37 17 -3 -104
11 -117 123 -117 66 0 97 -7 197 -41 65 -23 122 -45 127 -50 5 -4 4 -20 -3
-36 -25 -62 -21 -97 7 -52 7 11 31 29 53 39 39 17 43 17 132 -2 121 -26 134
-32 156 -69 18 -29 19 -30 26 -10 3 12 4 35 0 51 -9 42 -45 58 -287 130 -217
63 -346 111 -359 132 -23 35 -6 72 67 149 50 54 60 72 66 128 2 18 24 37 88
77 47 29 132 94 190 144 153 135 294 238 332 245 18 3 70 9 116 15 51 6 103
19 138 36 l55 26 194 -46 c107 -25 201 -43 210 -40 22 9 19 24 -22 92 -43 70
-82 101 -208 167 -49 26 -115 71 -147 100 -68 61 -155 110 -213 119 -22 4 -88
7 -147 8 -75 1 -105 5 -99 12 4 6 40 51 79 99 103 130 124 162 139 219 31 123
4 315 -52 368 l-25 23 -6 -32 c-4 -17 -9 -33 -13 -35 -3 -2 -30 35 -60 82
-118 188 -277 382 -301 367 -4 -3 -7 -41 -5 -86 l3 -81 -31 38 c-58 74 -184
192 -246 233 -62 40 -128 68 -138 58 -2 -3 5 -40 16 -81 12 -42 21 -78 21 -80
0 -3 -26 11 -57 30 -178 108 -390 178 -595 199 -50 5 -68 3 -68 -5 0 -15 56
-117 78 -143 23 -27 10 -29 -62 -12 -82 18 -76 19 -76 -3 0 -36 62 -142 103
-178 23 -20 92 -63 152 -96 61 -33 101 -57 89 -53 -46 12 -177 35 -205 35 -91
0 -12 -122 126 -197 l57 -30 -42 -7 c-68 -11 -110 -32 -110 -56 0 -12 22 -45
48 -73 48 -52 49 -52 43 -108 l-6 -56 -365 78 c-570 120 -545 113 -608 173
-118 111 -292 413 -332 576 l-23 93 -24 -29 c-37 -46 -66 -132 -66 -199 -2
-89 43 -165 192 -333 l73 -84 -103 65 c-383 237 -669 445 -806 586 l-63 64 0
-55z"/>
</g>
</svg>
