<svg id="visual" viewBox="0 0 960 250" width="960" height="250" xmlns="http://www.w3.org/2000/svg" xmlns:xlink="http://www.w3.org/1999/xlink" version="1.1"><path d="M0 14L16 14.8C32 15.7 64 17.3 96 21C128 24.7 160 30.3 192 29.5C224 28.7 256 21.3 288 18C320 14.7 352 15.3 384 17.8C416 20.3 448 24.7 480 27.7C512 30.7 544 32.3 576 30.2C608 28 640 22 672 21.5C704 21 736 26 768 26.8C800 27.7 832 24.3 864 21.5C896 18.7 928 16.3 944 15.2L960 14L960 0L944 0C928 0 896 0 864 0C832 0 800 0 768 0C736 0 704 0 672 0C640 0 608 0 576 0C544 0 512 0 480 0C448 0 416 0 384 0C352 0 320 0 288 0C256 0 224 0 192 0C160 0 128 0 96 0C64 0 32 0 16 0L0 0Z" fill="#e4c7ff"></path><path d="M0 44L16 43.2C32 42.3 64 40.7 96 46C128 51.3 160 63.7 192 66.2C224 68.7 256 61.3 288 58C320 54.7 352 55.3 384 55.3C416 55.3 448 54.7 480 57.2C512 59.7 544 65.3 576 62C608 58.7 640 46.3 672 43C704 39.7 736 45.3 768 49C800 52.7 832 54.3 864 55.2C896 56 928 56 944 56L960 56L960 12L944 13.2C928 14.3 896 16.7 864 19.5C832 22.3 800 25.7 768 24.8C736 24 704 19 672 19.5C640 20 608 26 576 28.2C544 30.3 512 28.7 480 25.7C448 22.7 416 18.3 384 15.8C352 13.3 320 12.7 288 16C256 19.3 224 26.7 192 27.5C160 28.3 128 22.7 96 19C64 15.3 32 13.7 16 12.8L0 12Z" fill="#b69fca"></path><path d="M0 96L16 101.8C32 107.7 64 119.3 96 130.2C128 141 160 151 192 147.3C224 143.7 256 126.3 288 113.8C320 101.3 352 93.7 384 94.5C416 95.3 448 104.7 480 113.5C512 122.3 544 130.7 576 128.2C608 125.7 640 112.3 672 111.8C704 111.3 736 123.7 768 124C800 124.3 832 112.7 864 109C896 105.3 928 109.7 944 111.8L960 114L960 54L944 54C928 54 896 54 864 53.2C832 52.3 800 50.7 768 47C736 43.3 704 37.7 672 41C640 44.3 608 56.7 576 60C544 63.3 512 57.7 480 55.2C448 52.7 416 53.3 384 53.3C352 53.3 320 52.7 288 56C256 59.3 224 66.7 192 64.2C160 61.7 128 49.3 96 44C64 38.7 32 40.3 16 41.2L0 42Z" fill="#897998"></path><path d="M0 129L16 139.3C32 149.7 64 170.3 96 181.5C128 192.7 160 194.3 192 189C224 183.7 256 171.3 288 162.2C320 153 352 147 384 148.7C416 150.3 448 159.7 480 165.2C512 170.7 544 172.3 576 164.3C608 156.3 640 138.7 672 140.7C704 142.7 736 164.3 768 166.5C800 168.7 832 151.3 864 145.2C896 139 928 144 944 146.5L960 149L960 112L944 109.8C928 107.7 896 103.3 864 107C832 110.7 800 122.3 768 122C736 121.7 704 109.3 672 109.8C640 110.3 608 123.7 576 126.2C544 128.7 512 120.3 480 111.5C448 102.7 416 93.3 384 92.5C352 91.7 320 99.3 288 111.8C256 124.3 224 141.7 192 145.3C160 149 128 139 96 128.2C64 117.3 32 105.7 16 99.8L0 94Z" fill="#5f5569"></path><path d="M0 211L16 213.5C32 216 64 221 96 225.2C128 229.3 160 232.7 192 231.5C224 230.3 256 224.7 288 220.5C320 216.3 352 213.7 384 215.7C416 217.7 448 224.3 480 227.7C512 231 544 231 576 230.7C608 230.3 640 229.7 672 226.8C704 224 736 219 768 217.3C800 215.7 832 217.3 864 218.2C896 219 928 219 944 219L960 219L960 147L944 144.5C928 142 896 137 864 143.2C832 149.3 800 166.7 768 164.5C736 162.3 704 140.7 672 138.7C640 136.7 608 154.3 576 162.3C544 170.3 512 168.7 480 163.2C448 157.7 416 148.3 384 146.7C352 145 320 151 288 160.2C256 169.3 224 181.7 192 187C160 192.3 128 190.7 96 179.5C64 168.3 32 147.7 16 137.3L0 127Z" fill="#38343c"></path><path d="M0 251L16 251C32 251 64 251 96 251C128 251 160 251 192 251C224 251 256 251 288 251C320 251 352 251 384 251C416 251 448 251 480 251C512 251 544 251 576 251C608 251 640 251 672 251C704 251 736 251 768 251C800 251 832 251 864 251C896 251 928 251 944 251L960 251L960 217L944 217C928 217 896 217 864 216.2C832 215.3 800 213.7 768 215.3C736 217 704 222 672 224.8C640 227.7 608 228.3 576 228.7C544 229 512 229 480 225.7C448 222.3 416 215.7 384 213.7C352 211.7 320 214.3 288 218.5C256 222.7 224 228.3 192 229.5C160 230.7 128 227.3 96 223.2C64 219 32 214 16 211.5L0 209Z" fill="#151515"></path></svg>