<svg id="svg" xmlns="http://www.w3.org/2000/svg" xmlns:xlink="http://www.w3.org/1999/xlink" width="400" height="250" viewBox="0, 0, 400,250"><g id="svgg"><path id="path0" d="M290.706 77.045 C 290.706 77.103,290.415 77.186,290.059 77.230 C 289.703 77.275,289.412 77.356,289.412 77.411 C 289.412 77.466,289.253 77.546,289.059 77.588 C 288.865 77.631,288.706 77.709,288.706 77.761 C 288.706 77.814,288.565 77.892,288.393 77.935 C 288.005 78.033,286.149 79.895,286.051 80.285 C 286.011 80.442,285.904 80.600,285.813 80.635 C 285.722 80.670,285.647 80.828,285.647 80.987 C 285.647 81.145,285.593 81.293,285.527 81.315 C 285.460 81.337,285.373 81.566,285.332 81.824 C 285.291 82.083,285.200 82.332,285.129 82.378 C 284.939 82.502,284.946 168.328,285.136 168.445 C 285.210 168.492,285.309 168.781,285.355 169.088 C 285.401 169.396,285.481 169.647,285.533 169.647 C 285.586 169.647,285.663 169.806,285.706 170.000 C 285.749 170.194,285.832 170.353,285.892 170.353 C 285.951 170.353,286.000 170.434,286.000 170.533 C 286.000 170.632,286.079 170.744,286.176 170.781 C 286.274 170.818,286.353 170.921,286.353 171.010 C 286.353 171.213,287.620 172.471,287.824 172.471 C 287.907 172.471,288.005 172.550,288.043 172.647 C 288.080 172.744,288.191 172.824,288.290 172.824 C 288.390 172.824,288.471 172.875,288.471 172.939 C 288.471 173.002,288.603 173.088,288.765 173.128 C 288.926 173.169,289.059 173.243,289.059 173.294 C 289.059 173.344,289.297 173.421,289.588 173.464 C 289.879 173.508,290.118 173.594,290.118 173.654 C 290.118 173.715,290.329 173.765,290.588 173.765 C 290.847 173.765,291.059 173.818,291.059 173.882 C 291.059 173.961,305.294 174.000,333.529 174.000 C 361.765 174.000,376.000 173.961,376.000 173.882 C 376.000 173.818,376.159 173.765,376.353 173.765 C 376.547 173.765,376.706 173.715,376.706 173.654 C 376.706 173.594,376.944 173.508,377.235 173.464 C 377.526 173.421,377.765 173.342,377.765 173.290 C 377.765 173.238,377.924 173.160,378.118 173.118 C 378.312 173.075,378.471 172.995,378.471 172.940 C 378.471 172.885,378.575 172.806,378.702 172.766 C 379.035 172.660,380.660 171.035,380.766 170.703 C 380.815 170.549,380.927 170.350,381.016 170.262 C 381.104 170.173,381.176 170.025,381.176 169.933 C 381.176 169.840,381.225 169.765,381.284 169.765 C 381.343 169.765,381.429 169.540,381.475 169.265 C 381.521 168.990,381.618 168.727,381.691 168.681 C 381.884 168.559,381.881 82.380,381.688 82.260 C 381.613 82.214,381.515 81.925,381.469 81.618 C 381.423 81.310,381.342 81.059,381.290 81.059 C 381.238 81.059,381.160 80.900,381.118 80.706 C 381.075 80.512,380.991 80.353,380.932 80.353 C 380.872 80.353,380.824 80.272,380.824 80.173 C 380.824 80.074,380.746 79.963,380.652 79.927 C 380.557 79.890,380.444 79.750,380.401 79.614 C 380.317 79.350,379.566 78.588,379.390 78.588 C 379.331 78.588,379.160 78.456,379.010 78.294 C 378.860 78.132,378.676 78.000,378.600 78.000 C 378.525 78.000,378.433 77.922,378.397 77.827 C 378.360 77.731,378.137 77.618,377.900 77.574 C 377.664 77.531,377.439 77.446,377.399 77.386 C 377.360 77.326,377.109 77.247,376.840 77.211 C 376.572 77.175,376.353 77.100,376.353 77.043 C 376.353 76.986,357.671 76.941,333.529 76.941 C 308.777 76.941,290.706 76.985,290.706 77.045 M55.412 90.219 C 55.412 90.275,55.087 90.350,54.689 90.386 C 54.292 90.422,53.935 90.501,53.895 90.562 C 53.856 90.622,53.625 90.708,53.382 90.753 C 53.140 90.798,52.941 90.881,52.941 90.937 C 52.941 90.994,52.782 91.075,52.588 91.118 C 52.394 91.160,52.235 91.238,52.235 91.291 C 52.235 91.343,52.103 91.419,51.941 91.460 C 51.779 91.501,51.647 91.586,51.647 91.649 C 51.647 91.713,51.590 91.765,51.521 91.765 C 51.353 91.765,49.529 93.585,49.529 93.752 C 49.529 93.824,49.482 93.882,49.425 93.882 C 49.367 93.882,49.286 94.015,49.246 94.176 C 49.205 94.338,49.124 94.471,49.066 94.471 C 49.008 94.471,48.925 94.629,48.882 94.824 C 48.840 95.018,48.762 95.176,48.710 95.176 C 48.658 95.176,48.579 95.415,48.536 95.706 C 48.492 95.997,48.406 96.235,48.346 96.235 C 48.285 96.235,48.235 96.447,48.235 96.706 C 48.235 96.965,48.182 97.176,48.118 97.176 C 48.045 97.176,48.000 97.745,48.000 98.647 C 48.000 99.549,48.045 100.118,48.118 100.118 C 48.182 100.118,48.235 100.276,48.235 100.471 C 48.235 100.665,48.281 100.824,48.337 100.824 C 48.394 100.824,48.469 101.043,48.505 101.311 C 48.541 101.579,48.623 101.831,48.688 101.871 C 48.752 101.911,48.841 102.089,48.886 102.266 C 48.930 102.443,49.008 102.588,49.059 102.588 C 49.110 102.588,49.187 102.731,49.231 102.906 C 49.275 103.080,49.439 103.343,49.596 103.488 C 49.754 103.634,49.882 103.802,49.882 103.862 C 49.882 104.037,51.005 105.143,51.267 105.227 C 51.399 105.269,51.537 105.380,51.574 105.475 C 51.610 105.570,51.721 105.647,51.820 105.647 C 51.919 105.647,52.000 105.696,52.000 105.755 C 52.000 105.815,52.159 105.899,52.353 105.941 C 52.547 105.984,52.706 106.063,52.706 106.118 C 52.706 106.172,52.878 106.254,53.088 106.300 C 53.299 106.345,53.502 106.432,53.540 106.492 C 53.579 106.552,53.910 106.632,54.276 106.670 C 54.642 106.708,54.941 106.784,54.941 106.840 C 54.941 106.896,55.629 106.941,56.471 106.941 C 57.312 106.941,58.000 106.896,58.000 106.840 C 58.000 106.784,58.299 106.708,58.665 106.670 C 59.031 106.632,59.363 106.550,59.402 106.487 C 59.441 106.423,59.618 106.335,59.795 106.291 C 59.973 106.246,60.118 106.167,60.118 106.114 C 60.118 106.062,60.276 105.984,60.471 105.941 C 60.665 105.899,60.824 105.815,60.824 105.755 C 60.824 105.696,60.918 105.647,61.033 105.647 C 61.148 105.647,61.332 105.541,61.443 105.412 C 61.554 105.282,61.725 105.176,61.822 105.176 C 61.920 105.176,62.000 105.126,62.000 105.064 C 62.000 105.003,62.185 104.773,62.412 104.553 C 62.638 104.333,62.824 104.111,62.824 104.060 C 62.824 104.010,62.956 103.845,63.118 103.696 C 63.279 103.546,63.412 103.368,63.412 103.300 C 63.412 103.232,63.464 103.176,63.527 103.176 C 63.591 103.176,63.676 103.044,63.716 102.882 C 63.757 102.721,63.833 102.588,63.886 102.588 C 63.938 102.588,64.016 102.429,64.059 102.235 C 64.101 102.041,64.178 101.882,64.230 101.882 C 64.281 101.882,64.359 101.659,64.402 101.386 C 64.446 101.113,64.545 100.850,64.623 100.802 C 64.813 100.685,64.825 96.619,64.636 96.496 C 64.565 96.450,64.474 96.204,64.434 95.951 C 64.394 95.697,64.311 95.458,64.249 95.420 C 64.187 95.382,64.100 95.206,64.055 95.028 C 64.011 94.851,63.933 94.706,63.883 94.706 C 63.832 94.706,63.757 94.524,63.715 94.301 C 63.667 94.044,63.554 93.869,63.408 93.822 C 63.281 93.782,63.176 93.681,63.176 93.598 C 63.176 93.413,61.598 91.765,61.421 91.765 C 61.351 91.765,61.294 91.713,61.294 91.649 C 61.294 91.586,61.162 91.501,61.000 91.460 C 60.838 91.419,60.706 91.343,60.706 91.291 C 60.706 91.238,60.547 91.160,60.353 91.118 C 60.159 91.075,60.000 90.994,60.000 90.937 C 60.000 90.881,59.801 90.798,59.559 90.753 C 59.316 90.708,59.085 90.621,59.044 90.559 C 59.004 90.497,58.620 90.418,58.191 90.383 C 57.763 90.349,57.412 90.275,57.412 90.219 C 57.412 90.163,56.962 90.118,56.412 90.118 C 55.862 90.118,55.412 90.163,55.412 90.219 M308.353 90.583 C 308.385 90.631,308.644 90.701,308.929 90.738 C 309.213 90.775,309.478 90.856,309.517 90.917 C 309.556 90.979,309.760 91.067,309.971 91.112 C 310.181 91.158,310.353 91.238,310.353 91.291 C 310.353 91.343,310.485 91.419,310.647 91.460 C 310.809 91.501,310.941 91.586,310.941 91.649 C 310.941 91.713,311.013 91.765,311.101 91.765 C 311.189 91.765,311.361 91.897,311.482 92.059 C 311.604 92.221,311.763 92.353,311.837 92.353 C 312.029 92.353,312.904 93.227,312.993 93.507 C 313.034 93.637,313.145 93.773,313.240 93.809 C 313.334 93.845,313.412 93.956,313.412 94.055 C 313.412 94.154,313.464 94.235,313.527 94.235 C 313.591 94.235,313.676 94.368,313.716 94.529 C 313.757 94.691,313.837 94.824,313.895 94.824 C 313.953 94.824,314.000 94.903,314.000 95.000 C 314.000 95.097,314.046 95.176,314.103 95.176 C 314.159 95.176,314.241 95.400,314.285 95.673 C 314.328 95.946,314.418 96.203,314.484 96.243 C 314.550 96.284,314.634 96.723,314.672 97.218 C 314.709 97.713,314.785 98.118,314.841 98.118 C 314.896 98.118,314.941 98.303,314.941 98.529 C 314.941 98.756,314.896 98.941,314.841 98.941 C 314.786 98.941,314.707 99.374,314.667 99.904 C 314.626 100.433,314.546 100.896,314.490 100.933 C 314.433 100.970,314.350 101.199,314.306 101.441 C 314.261 101.684,314.174 101.882,314.112 101.882 C 314.051 101.882,314.000 101.962,314.000 102.059 C 314.000 102.156,313.951 102.235,313.892 102.235 C 313.832 102.235,313.749 102.394,313.706 102.588 C 313.663 102.782,313.583 102.941,313.528 102.941 C 313.473 102.941,313.391 103.058,313.345 103.201 C 313.300 103.344,313.111 103.594,312.926 103.756 C 312.740 103.919,312.588 104.097,312.588 104.152 C 312.588 104.273,312.285 104.588,312.168 104.588 C 312.122 104.588,311.933 104.747,311.747 104.941 C 311.561 105.135,311.336 105.294,311.247 105.294 C 311.157 105.294,311.054 105.374,311.016 105.471 C 310.979 105.568,310.867 105.647,310.768 105.647 C 310.669 105.647,310.588 105.696,310.588 105.755 C 310.588 105.815,310.429 105.899,310.235 105.941 C 310.041 105.984,309.882 106.065,309.882 106.122 C 309.882 106.178,309.684 106.261,309.441 106.306 C 309.199 106.350,308.962 106.445,308.916 106.517 C 308.860 106.605,308.098 106.647,306.588 106.647 C 305.078 106.647,304.317 106.605,304.260 106.517 C 304.214 106.445,303.978 106.350,303.735 106.306 C 303.493 106.261,303.294 106.178,303.294 106.122 C 303.294 106.065,303.135 105.984,302.941 105.941 C 302.747 105.899,302.588 105.815,302.588 105.755 C 302.588 105.696,302.507 105.647,302.408 105.647 C 302.309 105.647,302.197 105.568,302.160 105.471 C 302.123 105.374,302.023 105.294,301.937 105.294 C 301.730 105.294,299.921 103.483,299.824 103.179 C 299.783 103.048,299.704 102.941,299.648 102.941 C 299.593 102.941,299.513 102.782,299.471 102.588 C 299.428 102.394,299.349 102.235,299.294 102.235 C 299.240 102.235,299.160 102.076,299.118 101.882 C 299.075 101.688,298.991 101.529,298.932 101.529 C 298.872 101.529,298.824 101.401,298.824 101.245 C 298.824 101.089,298.757 100.939,298.676 100.912 C 298.566 100.875,298.529 100.303,298.529 98.588 C 298.529 96.873,298.566 96.302,298.676 96.265 C 298.757 96.238,298.824 96.114,298.824 95.990 C 298.824 95.866,298.872 95.765,298.932 95.765 C 298.991 95.765,299.075 95.606,299.118 95.412 C 299.160 95.218,299.242 95.059,299.298 95.059 C 299.355 95.059,299.436 94.874,299.478 94.647 C 299.521 94.421,299.603 94.235,299.660 94.235 C 299.718 94.235,299.765 94.167,299.765 94.083 C 299.765 93.999,299.921 93.800,300.113 93.642 C 300.304 93.483,300.463 93.294,300.466 93.223 C 300.472 93.050,301.015 92.471,301.170 92.471 C 301.237 92.471,301.444 92.312,301.629 92.118 C 301.815 91.924,302.027 91.765,302.101 91.765 C 302.175 91.765,302.235 91.718,302.235 91.660 C 302.235 91.602,302.368 91.522,302.529 91.481 C 302.691 91.441,302.824 91.358,302.824 91.297 C 302.824 91.237,303.009 91.152,303.235 91.110 C 303.462 91.067,303.647 90.991,303.647 90.939 C 303.647 90.888,303.912 90.809,304.235 90.765 C 304.559 90.720,304.824 90.639,304.824 90.583 C 304.824 90.367,308.207 90.367,308.353 90.583 M0.000 125.412 L 0.000 159.647 21.412 159.647 L 42.824 159.647 42.824 152.706 L 42.824 145.765 29.000 145.765 L 15.176 145.765 15.176 118.471 L 15.176 91.176 7.588 91.176 L 0.000 91.176 0.000 125.412 M123.412 125.412 L 123.412 159.647 130.706 159.647 L 138.000 159.647 138.000 148.353 C 138.000 137.754,138.040 136.299,138.302 137.344 C 138.342 137.502,138.449 137.659,138.540 137.694 C 138.631 137.729,138.706 137.859,138.706 137.984 C 138.706 138.108,138.785 138.241,138.882 138.278 C 138.979 138.315,139.059 138.415,139.059 138.500 C 139.059 138.585,139.165 138.730,139.294 138.824 C 139.424 138.917,139.529 139.063,139.529 139.147 C 139.529 139.232,139.609 139.332,139.706 139.369 C 139.803 139.406,139.882 139.507,139.882 139.592 C 139.882 139.678,139.955 139.820,140.043 139.909 C 140.132 139.997,140.241 140.186,140.287 140.329 C 140.332 140.472,140.418 140.588,140.479 140.588 C 140.539 140.588,140.588 140.669,140.588 140.768 C 140.588 140.867,140.663 140.977,140.754 141.012 C 140.845 141.047,140.952 141.204,140.992 141.361 C 141.031 141.519,141.115 141.647,141.179 141.647 C 141.242 141.647,141.294 141.728,141.294 141.827 C 141.294 141.926,141.369 142.036,141.460 142.071 C 141.551 142.106,141.658 142.263,141.698 142.420 C 141.737 142.577,141.821 142.706,141.885 142.706 C 141.948 142.706,142.000 142.785,142.000 142.882 C 142.000 142.979,142.052 143.059,142.115 143.059 C 142.179 143.059,142.263 143.187,142.302 143.344 C 142.342 143.502,142.449 143.659,142.540 143.694 C 142.631 143.729,142.706 143.838,142.706 143.937 C 142.706 144.037,142.758 144.118,142.821 144.118 C 142.885 144.118,142.969 144.246,143.008 144.403 C 143.048 144.560,143.155 144.717,143.246 144.753 C 143.337 144.788,143.412 144.897,143.412 144.996 C 143.412 145.095,143.461 145.176,143.521 145.176 C 143.582 145.176,143.668 145.293,143.713 145.436 C 143.759 145.578,143.868 145.767,143.957 145.856 C 144.045 145.944,144.118 146.089,144.118 146.177 C 144.118 146.265,144.218 146.369,144.341 146.408 C 144.464 146.447,144.598 146.609,144.638 146.769 C 144.678 146.928,144.762 147.059,144.826 147.059 C 144.889 147.059,144.941 147.140,144.941 147.239 C 144.941 147.338,145.021 147.450,145.118 147.487 C 145.215 147.524,145.294 147.625,145.294 147.710 C 145.294 147.796,145.367 147.938,145.455 148.026 C 145.544 148.115,145.653 148.304,145.698 148.447 C 145.744 148.589,145.830 148.706,145.890 148.706 C 145.951 148.706,146.000 148.787,146.000 148.886 C 146.000 148.985,146.075 149.095,146.166 149.130 C 146.257 149.165,146.364 149.322,146.403 149.479 C 146.443 149.636,146.527 149.765,146.590 149.765 C 146.654 149.765,146.706 149.846,146.706 149.945 C 146.706 150.044,146.785 150.156,146.882 150.193 C 146.979 150.230,147.059 150.334,147.059 150.424 C 147.059 150.514,147.108 150.588,147.169 150.588 C 147.229 150.588,147.315 150.705,147.361 150.847 C 147.406 150.990,147.515 151.179,147.604 151.268 C 147.692 151.356,147.765 151.499,147.765 151.584 C 147.765 151.670,147.844 151.770,147.941 151.807 C 148.038 151.844,148.118 151.956,148.118 152.055 C 148.118 152.154,148.170 152.235,148.233 152.235 C 148.297 152.235,148.381 152.364,148.420 152.521 C 148.460 152.678,148.566 152.835,148.658 152.870 C 148.749 152.905,148.824 153.036,148.824 153.160 C 148.824 153.285,148.903 153.417,149.000 153.454 C 149.097 153.492,149.176 153.591,149.176 153.676 C 149.176 153.761,149.282 153.907,149.412 154.000 C 149.541 154.093,149.647 154.239,149.647 154.324 C 149.647 154.409,149.722 154.507,149.813 154.542 C 149.904 154.577,150.011 154.734,150.050 154.891 C 150.090 155.048,150.174 155.176,150.238 155.176 C 150.301 155.176,150.353 155.258,150.353 155.357 C 150.353 155.456,150.432 155.567,150.529 155.605 C 150.626 155.642,150.706 155.774,150.706 155.899 C 150.706 156.023,150.781 156.154,150.872 156.189 C 150.963 156.224,151.070 156.381,151.109 156.538 C 151.149 156.695,151.233 156.824,151.296 156.824 C 151.360 156.824,151.412 156.905,151.412 157.004 C 151.412 157.103,151.486 157.212,151.578 157.247 C 151.669 157.283,151.776 157.440,151.815 157.597 C 151.855 157.754,151.939 157.882,152.002 157.882 C 152.066 157.882,152.118 157.962,152.118 158.059 C 152.118 158.156,152.170 158.235,152.233 158.235 C 152.297 158.235,152.382 158.368,152.422 158.529 C 152.463 158.691,152.545 158.824,152.605 158.824 C 152.664 158.824,152.748 158.914,152.790 159.024 C 153.046 159.690,152.393 159.647,162.317 159.647 C 172.308 159.647,171.733 159.691,170.993 158.989 C 170.850 158.853,170.697 158.628,170.653 158.489 C 170.609 158.349,170.529 158.235,170.475 158.235 C 170.422 158.235,170.346 158.106,170.307 157.949 C 170.267 157.792,170.129 157.629,170.000 157.588 C 169.870 157.547,169.765 157.437,169.765 157.344 C 169.765 157.251,169.659 157.084,169.529 156.973 C 169.400 156.862,169.294 156.723,169.294 156.664 C 169.294 156.605,169.162 156.434,169.000 156.284 C 168.838 156.134,168.706 155.928,168.706 155.825 C 168.706 155.723,168.628 155.610,168.534 155.574 C 168.439 155.537,168.327 155.398,168.285 155.265 C 168.242 155.131,168.082 154.905,167.927 154.762 C 167.773 154.619,167.647 154.450,167.647 154.385 C 167.647 154.321,167.515 154.169,167.353 154.047 C 167.191 153.926,167.059 153.758,167.059 153.674 C 167.059 153.591,166.979 153.492,166.882 153.454 C 166.785 153.417,166.706 153.285,166.706 153.160 C 166.706 153.036,166.628 152.904,166.534 152.868 C 166.439 152.831,166.327 152.693,166.285 152.559 C 166.242 152.425,166.091 152.205,165.948 152.070 C 165.805 151.934,165.654 151.731,165.613 151.618 C 165.571 151.504,165.486 151.412,165.423 151.412 C 165.361 151.412,165.273 151.293,165.227 151.147 C 165.181 151.001,165.019 150.766,164.866 150.623 C 164.713 150.481,164.588 150.328,164.588 150.284 C 164.588 150.240,164.462 150.087,164.308 149.944 C 164.154 149.801,163.991 149.570,163.947 149.430 C 163.903 149.291,163.815 149.176,163.753 149.176 C 163.691 149.176,163.606 149.084,163.564 148.971 C 163.522 148.857,163.365 148.648,163.215 148.506 C 163.064 148.363,162.941 148.163,162.941 148.061 C 162.941 147.959,162.867 147.846,162.775 147.811 C 162.684 147.776,162.578 147.623,162.540 147.470 C 162.501 147.317,162.364 147.159,162.235 147.118 C 162.106 147.077,162.000 146.967,162.000 146.873 C 162.000 146.780,161.894 146.613,161.765 146.502 C 161.635 146.391,161.529 146.256,161.529 146.201 C 161.529 146.146,161.463 146.027,161.382 145.937 C 161.083 145.603,160.986 145.466,160.910 145.265 C 160.866 145.151,160.780 145.059,160.718 145.059 C 160.655 145.059,160.568 144.945,160.524 144.805 C 160.479 144.666,160.317 144.435,160.163 144.292 C 160.009 144.149,159.882 143.979,159.882 143.915 C 159.882 143.850,159.750 143.698,159.588 143.577 C 159.426 143.455,159.294 143.289,159.294 143.206 C 159.294 143.124,159.188 142.966,159.059 142.855 C 158.929 142.744,158.824 142.586,158.824 142.503 C 158.824 142.421,158.774 142.353,158.714 142.353 C 158.653 142.353,158.568 142.239,158.524 142.099 C 158.479 141.960,158.317 141.729,158.163 141.586 C 158.009 141.443,157.882 141.278,157.882 141.219 C 157.882 141.159,157.776 141.020,157.647 140.910 C 157.518 140.799,157.412 140.641,157.412 140.558 C 157.412 140.476,157.279 140.309,157.118 140.188 C 156.956 140.066,156.824 139.914,156.824 139.850 C 156.824 139.786,156.697 139.616,156.543 139.473 C 156.389 139.330,156.227 139.099,156.182 138.960 C 156.138 138.820,156.051 138.706,155.988 138.706 C 155.926 138.706,155.840 138.613,155.797 138.500 C 155.754 138.387,155.663 138.230,155.595 138.151 C 155.255 137.760,155.176 137.649,155.176 137.561 C 155.176 137.507,155.071 137.373,154.941 137.263 C 154.812 137.152,154.706 136.985,154.706 136.891 C 154.706 136.798,154.600 136.688,154.471 136.647 C 154.341 136.606,154.235 136.496,154.235 136.403 C 154.235 136.309,154.129 136.142,154.000 136.032 C 153.871 135.921,153.765 135.787,153.765 135.734 C 153.765 135.642,153.660 135.497,153.324 135.122 C 153.044 134.811,153.174 134.478,153.824 133.839 C 154.179 133.489,154.471 133.166,154.471 133.121 C 154.471 133.077,154.709 132.802,155.000 132.511 C 155.291 132.220,155.529 131.906,155.529 131.814 C 155.529 131.722,155.582 131.647,155.647 131.647 C 155.712 131.647,155.765 131.587,155.765 131.514 C 155.765 131.440,156.016 131.125,156.324 130.813 C 156.965 130.162,157.176 129.918,157.176 129.831 C 157.176 129.797,157.468 129.483,157.824 129.133 C 158.179 128.783,158.471 128.455,158.471 128.405 C 158.471 128.355,158.550 128.230,158.646 128.128 C 159.402 127.326,159.561 127.176,159.656 127.176 C 159.716 127.176,159.765 127.101,159.765 127.009 C 159.765 126.918,160.082 126.525,160.471 126.136 C 160.859 125.748,161.176 125.378,161.176 125.313 C 161.176 125.165,162.216 124.118,162.362 124.118 C 162.422 124.118,162.471 124.044,162.471 123.954 C 162.471 123.864,162.788 123.465,163.176 123.068 C 163.565 122.672,163.882 122.299,163.882 122.241 C 163.882 122.129,164.379 121.622,164.868 121.235 C 165.032 121.106,165.168 120.940,165.171 120.867 C 165.174 120.794,165.441 120.457,165.765 120.118 C 166.088 119.778,166.353 119.454,166.353 119.397 C 166.353 119.291,167.049 118.596,167.576 118.176 C 167.739 118.047,167.874 117.877,167.877 117.798 C 167.880 117.719,168.147 117.381,168.471 117.047 C 168.794 116.714,169.059 116.394,169.059 116.338 C 169.059 116.210,169.993 115.294,170.124 115.294 C 170.176 115.294,170.257 115.177,170.302 115.033 C 170.348 114.890,170.695 114.462,171.075 114.083 C 172.193 112.965,172.951 113.059,162.831 113.059 C 153.907 113.059,153.898 113.059,153.821 113.302 C 153.779 113.436,153.465 113.819,153.124 114.155 C 152.784 114.490,152.467 114.884,152.421 115.029 C 152.375 115.175,152.292 115.294,152.236 115.294 C 152.100 115.294,151.412 115.990,151.412 116.129 C 151.412 116.189,151.174 116.468,150.882 116.747 C 150.591 117.026,150.353 117.316,150.353 117.392 C 150.353 117.545,149.439 118.471,149.288 118.471 C 149.235 118.471,149.157 118.583,149.113 118.720 C 149.070 118.857,148.802 119.192,148.517 119.464 C 148.233 119.737,148.000 120.022,148.000 120.098 C 148.000 120.255,147.084 121.176,146.927 121.176 C 146.870 121.176,146.824 121.253,146.824 121.346 C 146.824 121.440,146.559 121.777,146.235 122.095 C 145.912 122.414,145.647 122.735,145.647 122.810 C 145.647 122.884,145.409 123.173,145.118 123.452 C 144.826 123.731,144.588 123.994,144.588 124.036 C 144.588 124.078,144.297 124.404,143.941 124.760 C 143.585 125.115,143.294 125.462,143.294 125.529 C 143.294 125.596,143.056 125.879,142.765 126.158 C 142.474 126.437,142.235 126.703,142.235 126.748 C 142.235 126.794,141.971 127.087,141.647 127.401 C 141.324 127.714,141.059 128.027,141.059 128.096 C 141.059 128.166,140.794 128.483,140.471 128.801 C 140.147 129.120,139.882 129.419,139.882 129.467 C 139.882 129.514,139.618 129.812,139.294 130.129 C 138.971 130.446,138.706 130.750,138.706 130.806 C 138.706 130.919,138.165 131.529,138.064 131.529 C 138.029 131.529,138.000 122.450,138.000 111.353 L 138.000 91.176 130.706 91.176 L 123.412 91.176 123.412 125.412 M256.344 104.500 C 256.339 111.828,256.306 117.754,256.272 117.669 C 256.206 117.503,253.786 115.059,253.688 115.059 C 253.656 115.059,253.556 114.993,253.466 114.912 C 253.067 114.553,252.944 114.476,252.666 114.406 C 252.503 114.365,252.341 114.257,252.306 114.166 C 252.271 114.075,252.162 114.000,252.063 114.000 C 251.963 114.000,251.882 113.951,251.882 113.892 C 251.882 113.832,251.724 113.749,251.529 113.706 C 251.335 113.663,251.176 113.584,251.176 113.530 C 251.176 113.477,250.965 113.397,250.706 113.353 C 250.447 113.309,250.235 113.228,250.235 113.171 C 250.235 113.115,250.037 113.033,249.794 112.988 C 249.551 112.944,249.322 112.861,249.285 112.803 C 249.248 112.746,248.944 112.667,248.609 112.628 C 248.274 112.588,248.000 112.510,248.000 112.454 C 248.000 112.399,247.846 112.353,247.657 112.353 C 247.468 112.353,247.296 112.303,247.275 112.242 C 247.253 112.181,246.812 112.094,246.294 112.048 C 245.776 112.003,245.315 111.907,245.269 111.836 C 245.150 111.652,238.260 111.654,238.143 111.837 C 238.097 111.910,237.701 112.006,237.265 112.053 C 236.828 112.099,236.471 112.185,236.471 112.245 C 236.471 112.304,236.312 112.353,236.118 112.353 C 235.924 112.353,235.765 112.400,235.765 112.457 C 235.765 112.515,235.526 112.597,235.235 112.641 C 234.944 112.685,234.706 112.763,234.706 112.816 C 234.706 112.868,234.494 112.945,234.235 112.986 C 233.976 113.028,233.765 113.109,233.765 113.168 C 233.765 113.226,233.553 113.309,233.294 113.353 C 233.035 113.397,232.824 113.477,232.824 113.530 C 232.824 113.584,232.665 113.663,232.471 113.706 C 232.276 113.749,232.118 113.832,232.118 113.892 C 232.118 113.951,232.037 114.000,231.937 114.000 C 231.838 114.000,231.728 114.076,231.692 114.169 C 231.657 114.262,231.473 114.372,231.284 114.414 C 231.096 114.455,230.941 114.534,230.941 114.590 C 230.941 114.645,230.822 114.728,230.676 114.774 C 230.531 114.820,230.332 114.946,230.235 115.054 C 230.138 115.163,229.966 115.286,229.853 115.328 C 229.740 115.370,229.647 115.455,229.647 115.518 C 229.647 115.580,229.535 115.667,229.398 115.710 C 229.261 115.754,228.926 116.022,228.653 116.306 C 228.381 116.591,228.083 116.826,227.991 116.829 C 227.899 116.832,227.718 116.970,227.588 117.136 C 227.459 117.303,227.260 117.524,227.147 117.628 C 227.034 117.732,226.941 117.862,226.941 117.918 C 226.941 117.973,226.703 118.257,226.412 118.548 C 226.121 118.839,225.882 119.149,225.882 119.237 C 225.882 119.324,225.779 119.429,225.653 119.469 C 225.527 119.509,225.387 119.658,225.343 119.800 C 225.298 119.942,225.143 120.170,224.997 120.305 C 224.852 120.441,224.697 120.666,224.653 120.805 C 224.609 120.945,224.527 121.059,224.472 121.059 C 224.417 121.059,224.338 121.213,224.296 121.402 C 224.255 121.591,224.145 121.774,224.052 121.810 C 223.959 121.846,223.882 121.956,223.882 122.055 C 223.882 122.154,223.832 122.235,223.770 122.235 C 223.708 122.235,223.623 122.421,223.580 122.647 C 223.538 122.874,223.460 123.059,223.408 123.059 C 223.356 123.059,223.278 123.218,223.235 123.412 C 223.193 123.606,223.109 123.765,223.049 123.765 C 222.990 123.765,222.941 123.844,222.941 123.941 C 222.941 124.038,222.892 124.118,222.833 124.118 C 222.773 124.118,222.690 124.276,222.647 124.471 C 222.604 124.665,222.528 124.824,222.476 124.824 C 222.425 124.824,222.349 125.035,222.308 125.294 C 222.266 125.553,222.183 125.765,222.123 125.765 C 222.063 125.765,221.979 126.003,221.935 126.294 C 221.891 126.585,221.812 126.824,221.759 126.824 C 221.705 126.824,221.626 127.062,221.582 127.353 C 221.538 127.644,221.460 127.882,221.407 127.882 C 221.354 127.882,221.275 128.174,221.230 128.529 C 221.186 128.885,221.107 129.176,221.055 129.176 C 221.004 129.176,220.924 129.574,220.879 130.059 C 220.833 130.544,220.749 130.941,220.692 130.941 C 220.635 130.941,220.588 131.228,220.588 131.578 C 220.588 131.984,220.535 132.234,220.441 132.265 C 220.327 132.303,220.294 133.309,220.294 136.765 C 220.294 140.221,220.327 141.227,220.441 141.265 C 220.529 141.294,220.588 141.522,220.588 141.833 C 220.588 142.119,220.634 142.353,220.691 142.353 C 220.747 142.353,220.830 142.724,220.874 143.176 C 220.919 143.629,220.998 144.000,221.051 144.000 C 221.103 144.000,221.181 144.265,221.224 144.588 C 221.267 144.912,221.348 145.176,221.405 145.176 C 221.461 145.176,221.544 145.441,221.588 145.765 C 221.633 146.088,221.711 146.353,221.763 146.353 C 221.814 146.353,221.891 146.538,221.933 146.765 C 221.976 146.991,222.054 147.176,222.108 147.176 C 222.161 147.176,222.239 147.388,222.280 147.647 C 222.322 147.906,222.404 148.118,222.463 148.118 C 222.521 148.118,222.604 148.276,222.647 148.471 C 222.690 148.665,222.773 148.824,222.833 148.824 C 222.892 148.824,222.941 148.903,222.941 149.000 C 222.941 149.097,222.990 149.176,223.049 149.176 C 223.109 149.176,223.193 149.335,223.235 149.529 C 223.278 149.724,223.361 149.882,223.419 149.882 C 223.477 149.882,223.558 150.015,223.599 150.176 C 223.639 150.338,223.714 150.471,223.765 150.471 C 223.815 150.471,223.890 150.603,223.931 150.765 C 223.971 150.926,224.056 151.059,224.120 151.059 C 224.183 151.059,224.235 151.140,224.235 151.239 C 224.235 151.338,224.315 151.450,224.412 151.487 C 224.509 151.524,224.588 151.629,224.588 151.720 C 224.588 151.810,224.694 151.975,224.824 152.086 C 224.953 152.197,225.059 152.336,225.059 152.395 C 225.059 152.453,225.244 152.676,225.471 152.890 C 225.697 153.104,225.882 153.329,225.882 153.392 C 225.882 153.565,227.871 155.529,228.046 155.529 C 228.131 155.529,228.322 155.688,228.471 155.882 C 228.619 156.076,228.793 156.235,228.857 156.235 C 228.921 156.235,229.090 156.361,229.233 156.516 C 229.376 156.670,229.607 156.832,229.746 156.877 C 229.886 156.921,230.000 157.006,230.000 157.067 C 230.000 157.127,230.081 157.176,230.180 157.176 C 230.279 157.176,230.389 157.251,230.424 157.341 C 230.458 157.432,230.663 157.539,230.879 157.580 C 231.095 157.620,231.301 157.731,231.338 157.827 C 231.374 157.922,231.485 158.000,231.585 158.000 C 231.684 158.000,231.765 158.053,231.765 158.118 C 231.765 158.182,231.844 158.235,231.941 158.235 C 232.038 158.235,232.118 158.284,232.118 158.344 C 232.118 158.403,232.276 158.487,232.471 158.529 C 232.665 158.572,232.824 158.649,232.824 158.700 C 232.824 158.751,233.035 158.827,233.294 158.869 C 233.553 158.910,233.765 158.990,233.765 159.045 C 233.765 159.101,233.972 159.180,234.225 159.220 C 234.479 159.261,234.704 159.348,234.726 159.414 C 234.748 159.480,235.044 159.567,235.383 159.607 C 235.722 159.647,236.000 159.724,236.000 159.777 C 236.000 159.831,236.265 159.909,236.588 159.952 C 236.912 159.995,237.176 160.071,237.176 160.121 C 237.176 160.170,237.613 160.249,238.147 160.296 C 238.681 160.343,239.155 160.441,239.201 160.514 C 239.320 160.701,245.974 160.702,246.092 160.514 C 246.139 160.441,246.507 160.343,246.912 160.297 C 247.316 160.250,247.647 160.172,247.647 160.122 C 247.647 160.073,247.925 160.000,248.264 159.960 C 248.603 159.920,248.899 159.833,248.921 159.767 C 248.943 159.701,249.168 159.614,249.422 159.573 C 249.675 159.532,249.882 159.457,249.882 159.406 C 249.882 159.355,250.041 159.278,250.235 159.235 C 250.429 159.193,250.588 159.113,250.588 159.059 C 250.588 159.004,250.747 158.925,250.941 158.882 C 251.135 158.840,251.294 158.760,251.294 158.706 C 251.294 158.651,251.453 158.572,251.647 158.529 C 251.841 158.487,252.000 158.403,252.000 158.344 C 252.000 158.284,252.079 158.235,252.176 158.235 C 252.274 158.235,252.353 158.183,252.353 158.120 C 252.353 158.056,252.481 157.972,252.639 157.933 C 252.796 157.893,252.953 157.786,252.988 157.695 C 253.023 157.604,253.153 157.529,253.278 157.529 C 253.402 157.529,253.535 157.450,253.572 157.353 C 253.609 157.256,253.700 157.176,253.775 157.176 C 253.849 157.176,254.110 156.970,254.355 156.717 C 254.600 156.465,254.912 156.223,255.048 156.180 C 255.183 156.137,255.294 156.056,255.294 156.001 C 255.294 155.893,255.798 155.380,256.280 155.000 C 256.443 154.871,256.580 154.703,256.583 154.627 C 256.586 154.551,256.738 154.339,256.922 154.155 C 257.105 153.971,257.287 153.742,257.324 153.646 C 257.362 153.549,257.397 154.860,257.402 156.559 L 257.412 159.647 264.118 159.647 L 270.824 159.647 270.824 125.412 L 270.824 91.176 263.588 91.176 L 256.353 91.176 256.344 104.500 M192.088 111.729 C 191.393 111.753,190.824 111.817,190.824 111.871 C 190.824 111.925,190.294 112.007,189.647 112.053 C 189.000 112.099,188.471 112.185,188.471 112.245 C 188.471 112.304,188.259 112.353,188.000 112.353 C 187.741 112.353,187.529 112.400,187.529 112.457 C 187.529 112.514,187.238 112.598,186.882 112.642 C 186.526 112.686,186.235 112.766,186.235 112.818 C 186.235 112.871,185.944 112.950,185.588 112.995 C 185.232 113.039,184.941 113.122,184.941 113.178 C 184.941 113.234,184.703 113.315,184.412 113.359 C 184.121 113.403,183.882 113.483,183.882 113.537 C 183.882 113.592,183.697 113.671,183.471 113.714 C 183.244 113.756,183.059 113.836,183.059 113.890 C 183.059 113.945,182.874 114.024,182.647 114.067 C 182.421 114.109,182.235 114.187,182.235 114.239 C 182.235 114.291,182.076 114.369,181.882 114.412 C 181.688 114.454,181.529 114.534,181.529 114.588 C 181.529 114.643,181.371 114.722,181.176 114.765 C 180.982 114.807,180.824 114.891,180.824 114.951 C 180.824 115.010,180.744 115.059,180.647 115.059 C 180.550 115.059,180.471 115.106,180.471 115.164 C 180.471 115.221,180.338 115.302,180.176 115.342 C 180.015 115.383,179.882 115.464,179.882 115.522 C 179.882 115.581,179.728 115.662,179.539 115.704 C 179.351 115.745,179.167 115.855,179.131 115.948 C 179.095 116.041,178.985 116.118,178.886 116.118 C 178.787 116.118,178.706 116.167,178.706 116.227 C 178.706 116.288,178.592 116.373,178.452 116.418 C 178.313 116.462,178.088 116.617,177.952 116.762 C 177.817 116.907,177.589 117.063,177.447 117.107 C 177.305 117.152,177.157 117.289,177.118 117.412 C 177.079 117.535,176.944 117.668,176.819 117.707 C 176.528 117.800,174.002 120.295,173.995 120.496 C 173.992 120.579,173.833 120.777,173.642 120.936 C 173.451 121.094,173.294 121.274,173.294 121.334 C 173.294 121.394,173.168 121.561,173.014 121.703 C 172.860 121.846,172.697 122.077,172.653 122.217 C 172.609 122.356,172.523 122.471,172.463 122.471 C 172.402 122.471,172.353 122.550,172.353 122.647 C 172.353 122.744,172.301 122.824,172.238 122.824 C 172.174 122.824,172.089 122.956,172.048 123.118 C 172.008 123.279,171.927 123.412,171.870 123.412 C 171.812 123.412,171.765 123.493,171.765 123.592 C 171.765 123.691,171.689 123.801,171.595 123.837 C 171.502 123.873,171.392 124.056,171.351 124.245 C 171.309 124.434,171.229 124.588,171.172 124.588 C 171.116 124.588,171.035 124.774,170.992 125.000 C 170.950 125.226,170.870 125.412,170.816 125.412 C 170.761 125.412,170.682 125.597,170.639 125.824 C 170.597 126.050,170.516 126.235,170.459 126.235 C 170.402 126.235,170.322 126.447,170.280 126.706 C 170.239 126.965,170.159 127.176,170.103 127.176 C 170.046 127.176,170.000 127.256,170.000 127.353 C 170.000 127.450,169.951 127.529,169.891 127.529 C 169.831 127.529,169.745 127.821,169.701 128.176 C 169.656 128.532,169.576 128.824,169.523 128.824 C 169.470 128.824,169.389 129.075,169.344 129.382 C 169.299 129.690,169.220 129.968,169.169 130.002 C 169.117 130.035,169.038 130.538,168.991 131.119 C 168.945 131.701,168.849 132.214,168.777 132.260 C 168.594 132.378,168.594 140.445,168.777 140.563 C 168.848 140.609,168.943 141.016,168.988 141.467 C 169.034 141.918,169.116 142.316,169.170 142.350 C 169.225 142.384,169.308 142.716,169.355 143.088 C 169.401 143.460,169.480 143.765,169.530 143.765 C 169.580 143.765,169.656 144.003,169.700 144.294 C 169.743 144.585,169.829 144.824,169.890 144.824 C 169.950 144.824,170.000 144.956,170.000 145.118 C 170.000 145.279,170.046 145.412,170.103 145.412 C 170.159 145.412,170.239 145.624,170.280 145.882 C 170.322 146.141,170.404 146.353,170.463 146.353 C 170.521 146.353,170.604 146.512,170.647 146.706 C 170.690 146.900,170.769 147.059,170.824 147.059 C 170.878 147.059,170.957 147.218,171.000 147.412 C 171.043 147.606,171.122 147.765,171.176 147.765 C 171.231 147.765,171.310 147.924,171.353 148.118 C 171.396 148.312,171.475 148.471,171.529 148.471 C 171.584 148.471,171.663 148.629,171.706 148.824 C 171.749 149.018,171.831 149.176,171.889 149.176 C 171.948 149.176,172.028 149.307,172.068 149.466 C 172.108 149.626,172.236 149.787,172.353 149.824 C 172.469 149.861,172.598 150.021,172.638 150.181 C 172.678 150.340,172.762 150.471,172.826 150.471 C 172.889 150.471,172.941 150.551,172.941 150.648 C 172.941 150.746,173.047 150.916,173.176 151.027 C 173.306 151.138,173.412 151.276,173.412 151.334 C 173.412 151.392,173.624 151.645,173.882 151.896 C 174.141 152.147,174.353 152.402,174.353 152.463 C 174.353 152.606,175.984 154.235,176.127 154.235 C 176.187 154.235,176.441 154.447,176.692 154.706 C 176.943 154.965,177.204 155.176,177.271 155.176 C 177.339 155.176,177.552 155.335,177.747 155.529 C 177.941 155.724,178.151 155.882,178.214 155.882 C 178.276 155.882,178.358 155.962,178.395 156.059 C 178.433 156.156,178.544 156.235,178.643 156.235 C 178.742 156.235,178.824 156.287,178.824 156.351 C 178.824 156.414,178.952 156.498,179.109 156.538 C 179.266 156.577,179.423 156.684,179.458 156.775 C 179.493 156.867,179.603 156.941,179.702 156.941 C 179.801 156.941,179.882 156.988,179.882 157.046 C 179.882 157.103,180.063 157.184,180.283 157.225 C 180.503 157.267,180.713 157.378,180.750 157.474 C 180.786 157.569,180.897 157.647,180.996 157.647 C 181.095 157.647,181.176 157.696,181.176 157.755 C 181.176 157.815,181.335 157.899,181.529 157.941 C 181.724 157.984,181.882 158.067,181.882 158.127 C 181.882 158.187,182.015 158.235,182.176 158.235 C 182.338 158.235,182.471 158.284,182.471 158.344 C 182.471 158.403,182.629 158.487,182.824 158.529 C 183.018 158.572,183.176 158.649,183.176 158.700 C 183.176 158.751,183.388 158.827,183.647 158.869 C 183.906 158.910,184.118 158.993,184.118 159.053 C 184.118 159.113,184.356 159.198,184.647 159.241 C 184.938 159.285,185.176 159.364,185.176 159.417 C 185.176 159.469,185.468 159.549,185.824 159.593 C 186.179 159.638,186.471 159.716,186.471 159.767 C 186.471 159.818,186.788 159.896,187.176 159.941 C 187.565 159.986,187.882 160.065,187.882 160.117 C 187.882 160.169,188.319 160.249,188.853 160.296 C 189.387 160.343,189.861 160.441,189.907 160.514 C 189.967 160.609,191.207 160.647,194.235 160.647 C 197.263 160.647,198.503 160.609,198.563 160.514 C 198.609 160.441,199.084 160.343,199.618 160.296 C 200.151 160.249,200.588 160.165,200.588 160.109 C 200.588 160.054,200.853 159.973,201.176 159.930 C 201.500 159.887,201.765 159.811,201.765 159.761 C 201.765 159.710,202.029 159.633,202.353 159.588 C 202.676 159.544,202.941 159.463,202.941 159.408 C 202.941 159.353,203.179 159.273,203.471 159.229 C 203.762 159.185,204.000 159.107,204.000 159.055 C 204.000 159.003,204.159 158.925,204.353 158.882 C 204.547 158.840,204.706 158.761,204.706 158.707 C 204.706 158.653,204.918 158.573,205.176 158.529 C 205.435 158.486,205.647 158.402,205.647 158.343 C 205.647 158.284,205.726 158.235,205.824 158.235 C 205.921 158.235,206.000 158.187,206.000 158.127 C 206.000 158.067,206.154 157.985,206.343 157.943 C 206.532 157.902,206.715 157.792,206.751 157.699 C 206.787 157.606,206.897 157.529,206.996 157.529 C 207.095 157.529,207.176 157.479,207.176 157.417 C 207.176 157.355,207.358 157.271,207.580 157.229 C 207.802 157.187,208.012 157.079,208.047 156.988 C 208.082 156.898,208.191 156.824,208.290 156.824 C 208.390 156.824,208.471 156.772,208.471 156.708 C 208.471 156.645,208.599 156.560,208.756 156.521 C 208.913 156.482,209.070 156.375,209.105 156.284 C 209.140 156.192,209.238 156.118,209.321 156.118 C 209.405 156.118,209.573 155.985,209.694 155.824 C 209.816 155.662,209.963 155.529,210.021 155.529 C 210.138 155.529,210.305 155.400,210.818 154.912 C 211.005 154.734,211.194 154.588,211.238 154.588 C 211.344 154.588,213.529 152.395,213.529 152.288 C 213.529 152.241,213.662 152.081,213.824 151.931 C 213.985 151.781,214.118 151.626,214.118 151.585 C 214.118 151.473,213.795 151.176,213.672 151.176 C 213.612 151.176,213.463 151.044,213.341 150.882 C 213.220 150.721,213.053 150.588,212.971 150.588 C 212.889 150.588,212.731 150.482,212.620 150.353 C 212.509 150.224,212.370 150.118,212.311 150.118 C 212.252 150.118,212.087 149.991,211.944 149.837 C 211.801 149.683,211.570 149.521,211.430 149.476 C 211.291 149.432,211.176 149.347,211.176 149.286 C 211.176 149.226,211.095 149.176,210.996 149.176 C 210.897 149.176,210.786 149.099,210.750 149.004 C 210.714 148.910,210.570 148.797,210.430 148.753 C 210.291 148.709,210.060 148.548,209.917 148.395 C 209.775 148.243,209.622 148.118,209.578 148.118 C 209.534 148.118,209.381 147.991,209.238 147.837 C 209.095 147.683,208.864 147.521,208.724 147.476 C 208.585 147.432,208.471 147.347,208.471 147.286 C 208.471 147.226,208.390 147.176,208.290 147.176 C 208.191 147.176,208.081 147.099,208.044 147.004 C 208.008 146.910,207.864 146.797,207.724 146.753 C 207.585 146.709,207.360 146.554,207.224 146.409 C 207.089 146.264,206.866 146.110,206.730 146.067 C 206.594 146.023,206.452 145.890,206.414 145.770 C 206.376 145.651,206.214 145.520,206.055 145.480 C 205.895 145.440,205.765 145.355,205.765 145.292 C 205.765 145.228,205.685 145.176,205.587 145.176 C 205.489 145.176,205.319 145.071,205.208 144.941 C 205.097 144.812,204.958 144.706,204.899 144.706 C 204.840 144.706,204.669 144.574,204.519 144.412 C 204.182 144.048,203.808 144.030,203.700 144.371 C 203.656 144.511,203.493 144.742,203.339 144.885 C 203.185 145.028,203.059 145.183,203.059 145.230 C 203.059 145.350,201.332 147.059,201.211 147.059 C 201.156 147.059,201.020 147.165,200.910 147.294 C 200.799 147.424,200.628 147.529,200.531 147.529 C 200.433 147.529,200.353 147.581,200.353 147.645 C 200.353 147.708,200.221 147.793,200.059 147.834 C 199.897 147.875,199.765 147.955,199.765 148.013 C 199.765 148.070,199.685 148.118,199.588 148.118 C 199.491 148.118,199.412 148.166,199.412 148.226 C 199.412 148.286,199.253 148.369,199.059 148.412 C 198.865 148.454,198.706 148.534,198.706 148.588 C 198.706 148.643,198.547 148.722,198.353 148.765 C 198.159 148.807,198.000 148.886,198.000 148.939 C 198.000 148.993,197.722 149.075,197.382 149.121 C 197.043 149.167,196.736 149.250,196.701 149.305 C 196.666 149.360,196.255 149.441,195.789 149.484 C 195.323 149.528,194.941 149.609,194.941 149.664 C 194.941 149.719,194.332 149.765,193.588 149.765 C 192.844 149.765,192.235 149.719,192.235 149.662 C 192.235 149.606,191.865 149.523,191.412 149.479 C 190.959 149.434,190.588 149.354,190.588 149.300 C 190.588 149.247,190.350 149.167,190.059 149.124 C 189.768 149.080,189.529 148.999,189.529 148.943 C 189.529 148.888,189.371 148.807,189.176 148.765 C 188.982 148.722,188.824 148.644,188.824 148.592 C 188.824 148.539,188.681 148.460,188.507 148.417 C 188.333 148.373,188.108 148.242,188.007 148.127 C 187.906 148.011,187.704 147.878,187.559 147.832 C 187.413 147.786,187.294 147.699,187.294 147.639 C 187.294 147.579,187.235 147.529,187.162 147.529 C 186.994 147.529,184.941 145.464,184.941 145.295 C 184.941 145.226,184.867 145.140,184.775 145.105 C 184.684 145.070,184.577 144.913,184.538 144.756 C 184.498 144.599,184.418 144.471,184.360 144.471 C 184.302 144.471,184.219 144.312,184.176 144.118 C 184.134 143.924,184.053 143.765,183.996 143.765 C 183.939 143.765,183.857 143.566,183.812 143.324 C 183.767 143.081,183.681 142.850,183.621 142.811 C 183.561 142.772,183.482 142.520,183.446 142.252 C 183.410 141.984,183.341 141.765,183.291 141.765 C 183.242 141.765,183.181 141.579,183.154 141.353 L 183.106 140.941 199.686 140.941 L 216.267 140.941 216.213 136.167 C 216.178 133.087,216.116 131.365,216.038 131.314 C 215.972 131.271,215.881 130.785,215.836 130.235 C 215.792 129.685,215.704 129.218,215.642 129.196 C 215.580 129.175,215.529 129.002,215.529 128.814 C 215.529 128.625,215.483 128.471,215.425 128.471 C 215.368 128.471,215.285 128.126,215.240 127.706 C 215.195 127.285,215.112 126.941,215.057 126.941 C 215.001 126.941,214.920 126.703,214.876 126.412 C 214.833 126.121,214.753 125.882,214.700 125.882 C 214.646 125.882,214.567 125.644,214.523 125.353 C 214.480 125.062,214.398 124.824,214.341 124.824 C 214.284 124.824,214.204 124.612,214.163 124.353 C 214.121 124.094,214.046 123.882,213.994 123.882 C 213.943 123.882,213.866 123.724,213.824 123.529 C 213.781 123.335,213.701 123.176,213.647 123.176 C 213.593 123.176,213.513 123.018,213.471 122.824 C 213.428 122.629,213.350 122.471,213.298 122.471 C 213.245 122.471,213.166 122.328,213.123 122.154 C 213.079 121.980,212.944 121.752,212.824 121.647 C 212.703 121.542,212.569 121.318,212.527 121.149 C 212.484 120.979,212.375 120.812,212.284 120.777 C 212.192 120.742,212.118 120.655,212.118 120.584 C 212.118 120.512,212.051 120.380,211.971 120.290 C 211.634 119.914,211.529 119.769,211.529 119.678 C 211.529 119.625,211.424 119.491,211.294 119.380 C 211.165 119.269,211.056 119.112,211.053 119.031 C 211.050 118.949,210.914 118.776,210.750 118.647 C 210.447 118.408,210.040 118.005,208.889 116.805 C 208.538 116.438,208.141 116.104,208.008 116.061 C 207.874 116.019,207.765 115.938,207.765 115.882 C 207.765 115.826,207.651 115.744,207.511 115.700 C 207.372 115.656,207.140 115.493,206.998 115.339 C 206.855 115.185,206.678 115.059,206.604 115.059 C 206.531 115.059,206.471 115.006,206.471 114.941 C 206.471 114.876,206.390 114.824,206.290 114.824 C 206.191 114.824,206.080 114.746,206.044 114.650 C 206.007 114.555,205.797 114.443,205.577 114.402 C 205.357 114.361,205.176 114.284,205.176 114.232 C 205.176 114.179,205.018 114.101,204.824 114.059 C 204.629 114.016,204.471 113.937,204.471 113.882 C 204.471 113.828,204.312 113.749,204.118 113.706 C 203.924 113.663,203.765 113.582,203.765 113.525 C 203.765 113.469,203.579 113.388,203.353 113.345 C 203.126 113.303,202.941 113.226,202.941 113.174 C 202.941 113.123,202.676 113.044,202.353 113.000 C 202.029 112.956,201.765 112.873,201.765 112.817 C 201.765 112.760,201.500 112.679,201.176 112.636 C 200.853 112.593,200.588 112.512,200.588 112.455 C 200.588 112.399,200.403 112.353,200.176 112.353 C 199.950 112.353,199.765 112.305,199.765 112.245 C 199.765 112.186,199.354 112.100,198.853 112.053 C 198.351 112.007,197.915 111.929,197.882 111.881 C 197.810 111.773,193.826 111.668,192.088 111.729 M95.971 112.079 C 95.663 112.107,95.412 112.181,95.412 112.242 C 95.412 112.303,95.253 112.353,95.059 112.353 C 94.865 112.353,94.706 112.400,94.706 112.457 C 94.706 112.514,94.415 112.598,94.059 112.642 C 93.703 112.686,93.412 112.771,93.412 112.831 C 93.412 112.890,93.200 112.972,92.941 113.014 C 92.682 113.055,92.471 113.131,92.471 113.182 C 92.471 113.233,92.312 113.310,92.118 113.353 C 91.924 113.396,91.765 113.475,91.765 113.529 C 91.765 113.584,91.606 113.663,91.412 113.706 C 91.218 113.749,91.059 113.826,91.059 113.879 C 91.059 113.931,90.926 114.008,90.765 114.048 C 90.603 114.089,90.471 114.174,90.471 114.238 C 90.471 114.301,90.390 114.353,90.290 114.353 C 90.191 114.353,90.082 114.428,90.047 114.519 C 90.012 114.610,89.858 114.716,89.705 114.754 C 89.552 114.793,89.394 114.930,89.353 115.059 C 89.312 115.188,89.200 115.294,89.104 115.294 C 89.008 115.294,88.403 115.821,87.759 116.465 C 87.115 117.109,86.588 117.714,86.588 117.810 C 86.588 117.906,86.482 118.018,86.353 118.059 C 86.224 118.100,86.087 118.258,86.048 118.411 C 86.010 118.564,85.904 118.717,85.813 118.753 C 85.722 118.788,85.647 118.897,85.647 118.996 C 85.647 119.095,85.594 119.176,85.529 119.176 C 85.454 119.176,85.412 118.078,85.412 116.118 L 85.412 113.059 78.471 113.059 L 71.529 113.059 71.529 136.353 L 71.529 159.647 78.759 159.647 L 85.989 159.647 86.024 146.157 C 86.051 135.494,86.090 132.656,86.206 132.618 C 86.299 132.586,86.353 132.337,86.353 131.931 C 86.353 131.581,86.400 131.294,86.457 131.294 C 86.514 131.294,86.598 131.003,86.642 130.647 C 86.686 130.291,86.766 130.000,86.819 130.000 C 86.872 130.000,86.950 129.815,86.992 129.588 C 87.035 129.362,87.116 129.176,87.172 129.176 C 87.229 129.176,87.310 129.018,87.353 128.824 C 87.396 128.629,87.475 128.471,87.529 128.471 C 87.584 128.471,87.664 128.307,87.708 128.106 C 87.754 127.901,88.002 127.542,88.277 127.285 C 88.545 127.034,88.929 126.669,89.130 126.473 C 89.331 126.278,89.556 126.118,89.630 126.118 C 89.704 126.118,89.765 126.066,89.765 126.002 C 89.765 125.939,89.897 125.854,90.059 125.813 C 90.221 125.772,90.353 125.694,90.353 125.640 C 90.353 125.585,90.538 125.505,90.765 125.463 C 90.991 125.420,91.176 125.339,91.176 125.281 C 91.176 125.224,91.304 125.176,91.461 125.176 C 91.617 125.176,91.767 125.110,91.794 125.029 C 91.831 124.918,92.438 124.882,94.294 124.882 C 96.150 124.882,96.757 124.918,96.794 125.029 C 96.821 125.110,96.971 125.176,97.127 125.176 C 97.284 125.176,97.412 125.224,97.412 125.281 C 97.412 125.339,97.597 125.420,97.824 125.463 C 98.050 125.505,98.235 125.587,98.235 125.644 C 98.235 125.702,98.353 125.786,98.496 125.832 C 98.795 125.926,100.034 127.132,100.150 127.441 C 100.193 127.554,100.277 127.647,100.336 127.647 C 100.396 127.647,100.479 127.832,100.522 128.059 C 100.564 128.285,100.644 128.471,100.698 128.471 C 100.753 128.471,100.832 128.656,100.875 128.882 C 100.917 129.109,100.998 129.294,101.055 129.294 C 101.111 129.294,101.195 129.638,101.240 130.059 C 101.285 130.479,101.368 130.824,101.425 130.824 C 101.483 130.824,101.529 131.084,101.529 131.402 C 101.529 131.760,101.585 131.999,101.676 132.029 C 101.793 132.068,101.831 134.966,101.860 145.863 L 101.897 159.647 109.125 159.647 L 116.353 159.647 116.353 144.647 C 116.353 136.397,116.308 129.647,116.253 129.647 C 116.198 129.647,116.115 128.894,116.070 127.974 C 116.024 127.053,115.943 126.272,115.890 126.238 C 115.837 126.204,115.755 125.740,115.708 125.206 C 115.661 124.672,115.580 124.235,115.529 124.235 C 115.477 124.235,115.398 123.918,115.353 123.529 C 115.308 123.141,115.229 122.824,115.178 122.824 C 115.127 122.824,115.050 122.585,115.006 122.294 C 114.962 122.003,114.883 121.765,114.830 121.765 C 114.776 121.765,114.697 121.526,114.653 121.235 C 114.610 120.944,114.527 120.706,114.469 120.706 C 114.411 120.706,114.329 120.521,114.286 120.294 C 114.244 120.068,114.162 119.882,114.105 119.882 C 114.047 119.882,114.000 119.803,114.000 119.706 C 114.000 119.609,113.951 119.529,113.892 119.529 C 113.832 119.529,113.749 119.371,113.706 119.176 C 113.663 118.982,113.580 118.824,113.520 118.824 C 113.460 118.824,113.412 118.742,113.412 118.643 C 113.412 118.544,113.337 118.435,113.246 118.400 C 113.155 118.365,113.048 118.207,113.008 118.050 C 112.969 117.893,112.885 117.765,112.821 117.765 C 112.758 117.765,112.706 117.689,112.706 117.597 C 112.706 117.505,112.547 117.271,112.353 117.077 C 112.159 116.883,112.000 116.689,112.000 116.645 C 112.000 116.506,110.823 115.427,110.590 115.354 C 110.466 115.314,110.334 115.184,110.296 115.065 C 110.258 114.945,110.096 114.814,109.937 114.774 C 109.778 114.734,109.647 114.649,109.647 114.586 C 109.647 114.523,109.566 114.471,109.467 114.471 C 109.368 114.471,109.258 114.396,109.223 114.306 C 109.189 114.215,108.979 114.107,108.757 114.065 C 108.535 114.023,108.353 113.943,108.353 113.886 C 108.353 113.830,108.194 113.749,108.000 113.706 C 107.806 113.663,107.647 113.582,107.647 113.525 C 107.647 113.469,107.462 113.388,107.235 113.345 C 107.009 113.303,106.824 113.226,106.824 113.174 C 106.824 113.123,106.559 113.044,106.235 113.000 C 105.912 112.956,105.647 112.876,105.647 112.824 C 105.647 112.772,105.329 112.692,104.941 112.647 C 104.553 112.602,104.235 112.517,104.235 112.459 C 104.235 112.401,104.001 112.353,103.716 112.353 C 103.427 112.353,103.176 112.293,103.151 112.217 C 103.105 112.078,97.199 111.965,95.971 112.079 M352.706 112.235 C 352.706 112.301,353.020 112.353,353.412 112.353 C 353.800 112.353,354.118 112.399,354.118 112.455 C 354.118 112.512,354.554 112.596,355.088 112.642 C 355.621 112.689,356.089 112.777,356.126 112.837 C 356.164 112.898,356.468 112.980,356.803 113.019 C 357.138 113.059,357.412 113.131,357.412 113.180 C 357.412 113.228,357.597 113.303,357.824 113.345 C 358.050 113.388,358.235 113.472,358.235 113.533 C 358.235 113.594,358.447 113.678,358.706 113.720 C 358.965 113.761,359.176 113.835,359.176 113.885 C 359.176 113.934,359.309 114.008,359.471 114.048 C 359.632 114.089,359.765 114.170,359.765 114.228 C 359.765 114.287,359.919 114.368,360.108 114.410 C 360.297 114.451,360.480 114.561,360.516 114.654 C 360.552 114.747,360.650 114.824,360.735 114.824 C 360.820 114.824,360.966 114.929,361.059 115.059 C 361.152 115.188,361.277 115.294,361.337 115.294 C 361.396 115.294,361.610 115.454,361.811 115.649 C 362.012 115.844,362.481 116.295,362.853 116.652 C 363.225 117.008,363.529 117.366,363.529 117.447 C 363.529 117.528,363.635 117.685,363.765 117.796 C 363.894 117.907,364.000 118.078,364.000 118.175 C 364.000 118.273,364.053 118.353,364.118 118.353 C 364.182 118.353,364.235 118.434,364.235 118.533 C 364.235 118.632,364.315 118.744,364.412 118.781 C 364.509 118.818,364.588 118.922,364.588 119.013 C 364.588 119.103,364.637 119.176,364.697 119.176 C 364.756 119.176,364.840 119.335,364.882 119.529 C 364.925 119.724,365.003 119.882,365.055 119.882 C 365.107 119.882,365.185 120.068,365.228 120.294 C 365.270 120.521,365.349 120.706,365.404 120.706 C 365.459 120.706,365.538 120.891,365.580 121.118 C 365.623 121.344,365.702 121.529,365.757 121.529 C 365.811 121.529,365.891 121.768,365.935 122.059 C 365.979 122.350,366.058 122.588,366.111 122.588 C 366.164 122.588,366.245 122.932,366.290 123.353 C 366.335 123.774,366.415 124.118,366.468 124.118 C 366.521 124.118,366.603 124.501,366.649 124.971 C 366.696 125.440,366.777 125.851,366.829 125.884 C 366.881 125.917,366.962 126.592,367.008 127.384 C 367.054 128.176,367.138 128.824,367.193 128.824 C 367.249 128.824,367.294 129.618,367.294 130.588 C 367.294 131.686,367.339 132.353,367.412 132.353 C 367.490 132.353,367.529 136.961,367.529 145.941 L 367.529 159.529 360.359 159.529 L 353.188 159.529 353.153 145.407 C 353.127 135.169,353.082 131.262,352.986 131.202 C 352.914 131.155,352.817 130.760,352.771 130.324 C 352.725 129.887,352.645 129.529,352.594 129.529 C 352.543 129.529,352.467 129.318,352.425 129.059 C 352.384 128.800,352.298 128.588,352.234 128.588 C 352.170 128.588,352.118 128.482,352.118 128.353 C 352.118 128.224,352.065 128.118,352.000 128.118 C 351.935 128.118,351.882 128.010,351.882 127.879 C 351.882 127.747,351.803 127.609,351.706 127.572 C 351.609 127.535,351.529 127.430,351.529 127.339 C 351.529 127.248,351.424 127.084,351.294 126.973 C 351.165 126.862,351.059 126.731,351.059 126.681 C 351.059 126.546,350.669 126.118,350.546 126.118 C 350.487 126.118,350.315 125.984,350.164 125.821 C 350.013 125.658,349.729 125.493,349.533 125.454 C 349.337 125.414,349.176 125.336,349.176 125.279 C 349.176 125.223,349.097 125.176,349.000 125.176 C 348.903 125.176,348.824 125.129,348.824 125.070 C 348.824 125.012,348.506 124.927,348.118 124.882 C 347.729 124.837,347.412 124.753,347.412 124.694 C 347.412 124.636,346.593 124.588,345.588 124.588 C 344.585 124.588,343.765 124.634,343.765 124.691 C 343.765 124.747,343.447 124.829,343.059 124.873 C 342.671 124.917,342.353 125.003,342.353 125.065 C 342.353 125.126,342.221 125.176,342.059 125.176 C 341.897 125.176,341.765 125.225,341.765 125.285 C 341.765 125.344,341.606 125.428,341.412 125.471 C 341.218 125.513,341.059 125.597,341.059 125.656 C 341.059 125.716,340.978 125.765,340.879 125.765 C 340.780 125.765,340.668 125.844,340.631 125.941 C 340.594 126.038,340.496 126.118,340.414 126.118 C 340.231 126.118,339.132 127.168,339.026 127.445 C 338.983 127.556,338.900 127.647,338.840 127.647 C 338.781 127.647,338.698 127.827,338.657 128.047 C 338.616 128.268,338.504 128.478,338.409 128.514 C 338.313 128.551,338.235 128.715,338.235 128.879 C 338.235 129.042,338.185 129.176,338.123 129.176 C 338.061 129.176,337.976 129.362,337.933 129.588 C 337.891 129.815,337.816 130.000,337.767 130.000 C 337.718 130.000,337.640 130.330,337.594 130.734 C 337.549 131.138,337.464 131.497,337.405 131.533 C 337.347 131.569,337.263 132.430,337.220 133.447 C 337.176 134.463,337.095 135.294,337.041 135.294 C 336.986 135.294,336.941 140.747,336.941 147.412 L 336.941 159.529 329.882 159.529 L 322.824 159.529 322.824 136.412 L 322.824 113.294 329.588 113.294 L 336.353 113.294 336.353 116.412 L 336.353 119.529 336.647 119.529 C 336.820 119.529,336.941 119.462,336.941 119.366 C 336.941 119.275,337.021 119.171,337.118 119.134 C 337.215 119.097,337.294 118.985,337.294 118.886 C 337.294 118.787,337.343 118.706,337.404 118.706 C 337.464 118.706,337.551 118.589,337.596 118.446 C 337.641 118.303,337.830 118.053,338.016 117.891 C 338.201 117.728,338.353 117.527,338.353 117.444 C 338.353 117.362,338.578 117.083,338.853 116.825 C 339.128 116.566,339.495 116.222,339.669 116.060 C 339.843 115.898,340.031 115.765,340.086 115.765 C 340.142 115.765,340.317 115.608,340.476 115.417 C 340.635 115.225,340.831 115.067,340.912 115.064 C 340.993 115.061,341.059 115.007,341.059 114.943 C 341.059 114.880,341.187 114.796,341.344 114.756 C 341.502 114.717,341.659 114.610,341.694 114.519 C 341.729 114.428,341.865 114.353,341.996 114.353 C 342.128 114.353,342.235 114.300,342.235 114.235 C 342.235 114.171,342.316 114.118,342.415 114.118 C 342.515 114.118,342.626 114.038,342.664 113.941 C 342.701 113.843,342.938 113.730,343.189 113.690 C 343.441 113.650,343.647 113.575,343.647 113.524 C 343.647 113.472,343.806 113.396,344.000 113.353 C 344.194 113.310,344.353 113.233,344.353 113.180 C 344.353 113.128,344.591 113.050,344.882 113.006 C 345.174 112.962,345.412 112.882,345.412 112.828 C 345.412 112.773,345.729 112.692,346.118 112.647 C 346.506 112.602,346.824 112.517,346.824 112.459 C 346.824 112.401,347.088 112.353,347.412 112.353 C 347.735 112.353,348.000 112.300,348.000 112.235 C 348.000 112.161,348.863 112.118,350.353 112.118 C 351.843 112.118,352.706 112.161,352.706 112.235 M49.176 136.353 L 49.176 159.647 56.471 159.647 L 63.765 159.647 63.765 136.353 L 63.765 113.059 56.471 113.059 L 49.176 113.059 49.176 136.353 M313.647 136.412 L 313.647 159.529 306.588 159.529 L 299.529 159.529 299.529 136.412 L 299.529 113.294 306.588 113.294 L 313.647 113.294 313.647 136.412 M194.941 122.355 C 194.974 122.403,195.278 122.480,195.618 122.526 C 195.957 122.572,196.235 122.658,196.235 122.717 C 196.235 122.776,196.315 122.824,196.412 122.824 C 196.509 122.824,196.588 122.872,196.588 122.932 C 196.588 122.991,196.747 123.075,196.941 123.118 C 197.135 123.160,197.294 123.238,197.294 123.291 C 197.294 123.343,197.437 123.422,197.612 123.466 C 197.786 123.510,198.049 123.674,198.194 123.832 C 198.340 123.989,198.511 124.118,198.573 124.118 C 198.767 124.118,199.898 125.326,200.032 125.676 C 200.075 125.790,200.165 125.882,200.232 125.882 C 200.298 125.882,200.353 125.962,200.353 126.059 C 200.353 126.156,200.405 126.235,200.468 126.235 C 200.532 126.235,200.617 126.368,200.658 126.529 C 200.698 126.691,200.774 126.824,200.827 126.824 C 200.879 126.824,200.957 126.982,201.000 127.176 C 201.043 127.371,201.121 127.529,201.175 127.529 C 201.228 127.529,201.310 127.807,201.356 128.147 C 201.402 128.487,201.485 128.793,201.539 128.827 C 201.593 128.862,201.674 129.325,201.718 129.857 L 201.799 130.824 192.434 130.824 L 183.070 130.824 183.141 130.206 C 183.180 129.866,183.251 129.562,183.298 129.529 C 183.345 129.497,183.421 129.193,183.467 128.853 C 183.514 128.513,183.595 128.235,183.649 128.235 C 183.702 128.235,183.781 128.076,183.824 127.882 C 183.866 127.688,183.946 127.529,184.000 127.529 C 184.054 127.529,184.134 127.371,184.176 127.176 C 184.219 126.982,184.302 126.824,184.360 126.824 C 184.418 126.824,184.499 126.691,184.540 126.529 C 184.581 126.368,184.663 126.235,184.722 126.235 C 184.782 126.235,184.864 126.148,184.905 126.042 C 184.996 125.804,186.528 124.235,186.669 124.235 C 186.725 124.235,186.862 124.129,186.973 124.000 C 187.084 123.871,187.254 123.765,187.352 123.765 C 187.449 123.765,187.529 123.718,187.529 123.660 C 187.529 123.602,187.662 123.522,187.824 123.481 C 187.985 123.441,188.118 123.358,188.118 123.297 C 188.118 123.237,188.303 123.152,188.529 123.110 C 188.756 123.067,188.941 122.986,188.941 122.928 C 188.941 122.871,189.021 122.824,189.118 122.824 C 189.215 122.824,189.294 122.774,189.294 122.714 C 189.294 122.654,189.585 122.569,189.941 122.524 C 190.297 122.480,190.588 122.399,190.588 122.345 C 190.588 122.148,194.808 122.159,194.941 122.355 M248.810 124.679 C 248.850 124.741,249.187 124.829,249.559 124.875 C 249.931 124.921,250.235 125.007,250.235 125.067 C 250.235 125.127,250.341 125.176,250.471 125.176 C 250.600 125.176,250.706 125.224,250.706 125.281 C 250.706 125.339,250.891 125.420,251.118 125.463 C 251.344 125.505,251.529 125.586,251.529 125.643 C 251.529 125.700,251.688 125.781,251.882 125.824 C 252.076 125.866,252.235 125.950,252.235 126.009 C 252.235 126.069,252.316 126.118,252.415 126.118 C 252.515 126.118,252.626 126.197,252.663 126.294 C 252.701 126.391,252.797 126.471,252.877 126.471 C 252.957 126.471,253.145 126.576,253.294 126.706 C 253.443 126.835,253.610 126.941,253.665 126.941 C 253.801 126.941,254.706 127.882,254.706 128.023 C 254.706 128.085,254.865 128.295,255.059 128.489 C 255.253 128.683,255.412 128.917,255.412 129.009 C 255.412 129.101,255.465 129.176,255.529 129.176 C 255.594 129.176,255.647 129.258,255.647 129.357 C 255.647 129.456,255.726 129.567,255.824 129.605 C 255.921 129.642,256.000 129.746,256.000 129.836 C 256.000 129.926,256.047 130.000,256.105 130.000 C 256.162 130.000,256.244 130.185,256.286 130.412 C 256.329 130.638,256.412 130.824,256.472 130.824 C 256.531 130.824,256.615 131.088,256.658 131.412 C 256.701 131.735,256.777 132.000,256.828 132.000 C 256.878 132.000,256.957 132.278,257.003 132.618 C 257.049 132.957,257.147 133.273,257.220 133.319 C 257.313 133.378,257.353 134.275,257.353 136.294 C 257.353 138.314,257.313 139.210,257.220 139.269 C 257.147 139.315,257.049 139.631,257.003 139.971 C 256.957 140.310,256.874 140.588,256.820 140.588 C 256.765 140.588,256.685 140.826,256.641 141.118 C 256.597 141.409,256.519 141.647,256.467 141.647 C 256.414 141.647,256.337 141.806,256.294 142.000 C 256.251 142.194,256.168 142.353,256.108 142.353 C 256.049 142.353,256.000 142.432,256.000 142.529 C 256.000 142.626,255.953 142.706,255.895 142.706 C 255.837 142.706,255.757 142.838,255.716 143.000 C 255.676 143.162,255.591 143.294,255.527 143.294 C 255.464 143.294,255.412 143.375,255.412 143.474 C 255.412 143.573,255.334 143.684,255.240 143.720 C 255.145 143.757,255.035 143.889,254.995 144.014 C 254.914 144.270,253.812 145.412,253.647 145.412 C 253.588 145.412,253.418 145.533,253.270 145.682 C 253.121 145.831,252.907 145.988,252.794 146.031 C 252.681 146.075,252.588 146.159,252.588 146.219 C 252.588 146.279,252.456 146.361,252.294 146.401 C 252.132 146.442,252.000 146.525,252.000 146.585 C 252.000 146.646,251.815 146.730,251.588 146.772 C 251.362 146.815,251.176 146.892,251.176 146.944 C 251.176 146.996,250.965 147.074,250.706 147.118 C 250.447 147.161,250.235 147.240,250.235 147.293 C 250.235 147.346,249.957 147.428,249.618 147.474 C 249.278 147.520,248.962 147.618,248.916 147.691 C 248.858 147.783,247.991 147.824,246.059 147.824 C 244.127 147.824,243.260 147.783,243.202 147.691 C 243.155 147.618,242.840 147.520,242.500 147.474 C 242.160 147.428,241.882 147.348,241.882 147.296 C 241.882 147.245,241.697 147.168,241.471 147.125 C 241.244 147.083,241.059 147.004,241.059 146.949 C 241.059 146.894,240.874 146.815,240.647 146.772 C 240.421 146.730,240.235 146.649,240.235 146.592 C 240.235 146.536,240.076 146.454,239.882 146.412 C 239.688 146.369,239.529 146.284,239.529 146.222 C 239.529 146.161,239.437 146.075,239.324 146.032 C 239.210 145.988,238.953 145.778,238.751 145.565 C 238.549 145.351,238.332 145.176,238.268 145.176 C 238.113 145.176,237.529 144.630,237.529 144.485 C 237.529 144.422,237.381 144.221,237.199 144.038 C 237.017 143.856,236.834 143.613,236.791 143.500 C 236.748 143.387,236.665 143.294,236.605 143.294 C 236.545 143.294,236.463 143.114,236.422 142.894 C 236.380 142.673,236.269 142.463,236.173 142.427 C 236.078 142.390,236.000 142.226,236.000 142.063 C 236.000 141.899,235.947 141.765,235.882 141.765 C 235.818 141.765,235.765 141.685,235.765 141.588 C 235.765 141.491,235.714 141.412,235.652 141.412 C 235.591 141.412,235.505 141.226,235.463 141.000 C 235.420 140.774,235.345 140.588,235.295 140.588 C 235.245 140.588,235.166 140.231,235.119 139.794 C 235.072 139.357,234.974 138.962,234.900 138.916 C 234.713 138.800,234.709 133.792,234.896 133.672 C 234.968 133.626,235.065 133.231,235.111 132.794 C 235.157 132.357,235.241 132.000,235.296 132.000 C 235.352 132.000,235.433 131.762,235.477 131.471 C 235.520 131.179,235.603 130.941,235.660 130.941 C 235.718 130.941,235.765 130.862,235.765 130.765 C 235.765 130.668,235.813 130.588,235.873 130.588 C 235.933 130.588,236.016 130.429,236.059 130.235 C 236.101 130.041,236.181 129.882,236.235 129.882 C 236.290 129.882,236.369 129.724,236.412 129.529 C 236.454 129.335,236.534 129.176,236.590 129.176 C 236.645 129.176,236.725 129.066,236.768 128.931 C 236.866 128.623,239.020 126.471,239.231 126.471 C 239.317 126.471,239.417 126.391,239.454 126.294 C 239.492 126.197,239.603 126.118,239.702 126.118 C 239.801 126.118,239.882 126.069,239.882 126.009 C 239.882 125.950,240.041 125.866,240.235 125.824 C 240.429 125.781,240.588 125.703,240.588 125.651 C 240.588 125.598,240.774 125.521,241.000 125.478 C 241.226 125.436,241.412 125.351,241.412 125.289 C 241.412 125.227,241.518 125.176,241.647 125.176 C 241.776 125.176,241.882 125.128,241.882 125.068 C 241.882 125.009,242.226 124.923,242.647 124.878 C 243.068 124.833,243.412 124.752,243.412 124.699 C 243.412 124.470,248.664 124.452,248.810 124.679 M391.912 161.267 C 391.507 161.288,391.176 161.351,391.176 161.406 C 391.176 161.462,390.912 161.544,390.588 161.588 C 390.265 161.633,390.000 161.713,390.000 161.766 C 390.000 161.820,389.841 161.899,389.647 161.941 C 389.453 161.984,389.294 162.069,389.294 162.131 C 389.294 162.192,389.201 162.277,389.088 162.320 C 388.823 162.420,387.366 163.877,387.263 164.147 C 387.219 164.260,387.133 164.353,387.072 164.353 C 387.010 164.353,386.925 164.512,386.882 164.706 C 386.840 164.900,386.762 165.059,386.710 165.059 C 386.658 165.059,386.577 165.310,386.531 165.618 C 386.485 165.925,386.389 166.213,386.318 166.257 C 386.138 166.368,386.148 169.520,386.328 169.632 C 386.400 169.676,386.495 169.936,386.539 170.209 C 386.583 170.482,386.660 170.706,386.712 170.706 C 386.763 170.706,386.840 170.865,386.882 171.059 C 386.925 171.253,387.008 171.412,387.066 171.412 C 387.124 171.412,387.205 171.544,387.246 171.706 C 387.286 171.868,387.363 172.000,387.415 172.000 C 387.468 172.000,387.828 172.318,388.216 172.706 C 388.605 173.094,388.981 173.412,389.053 173.412 C 389.125 173.412,389.214 173.491,389.252 173.588 C 389.289 173.685,389.393 173.765,389.483 173.765 C 389.573 173.765,389.647 173.815,389.647 173.877 C 389.647 173.939,389.846 174.026,390.088 174.070 C 390.331 174.115,390.560 174.198,390.597 174.255 C 390.634 174.311,391.018 174.391,391.450 174.431 C 391.882 174.472,392.235 174.550,392.235 174.605 C 392.235 174.661,392.526 174.706,392.882 174.706 C 393.238 174.706,393.529 174.660,393.529 174.605 C 393.529 174.549,393.854 174.474,394.252 174.438 C 394.649 174.402,395.006 174.323,395.046 174.262 C 395.085 174.201,395.316 174.115,395.559 174.070 C 395.801 174.026,396.000 173.939,396.000 173.877 C 396.000 173.815,396.079 173.765,396.176 173.765 C 396.274 173.765,396.353 173.715,396.353 173.655 C 396.353 173.595,396.457 173.512,396.584 173.472 C 396.869 173.381,398.353 171.962,398.353 171.780 C 398.353 171.707,398.405 171.647,398.468 171.647 C 398.532 171.647,398.617 171.515,398.658 171.353 C 398.698 171.191,398.776 171.059,398.831 171.059 C 398.886 171.059,398.967 170.860,399.012 170.618 C 399.056 170.375,399.145 170.143,399.208 170.102 C 399.272 170.060,399.351 169.650,399.384 169.190 C 399.416 168.730,399.489 168.353,399.545 168.353 C 399.601 168.353,399.647 168.141,399.647 167.882 C 399.647 167.624,399.602 167.412,399.546 167.412 C 399.491 167.412,399.414 167.033,399.375 166.569 C 399.336 166.105,399.257 165.695,399.199 165.657 C 399.140 165.619,399.056 165.390,399.012 165.147 C 398.967 164.904,398.880 164.706,398.818 164.706 C 398.756 164.706,398.706 164.625,398.706 164.526 C 398.706 164.427,398.626 164.315,398.529 164.278 C 398.432 164.241,398.353 164.137,398.353 164.047 C 398.353 163.825,396.901 162.393,396.570 162.288 C 396.424 162.242,396.233 162.132,396.144 162.043 C 396.056 161.955,395.908 161.882,395.815 161.882 C 395.723 161.882,395.647 161.836,395.647 161.780 C 395.647 161.723,395.424 161.641,395.151 161.598 C 394.878 161.554,394.626 161.476,394.592 161.424 C 394.515 161.308,392.910 161.214,391.912 161.267 M394.679 162.450 C 394.703 162.522,394.904 162.615,395.126 162.656 C 395.348 162.698,395.529 162.773,395.529 162.824 C 395.529 162.874,395.668 162.950,395.838 162.993 C 396.007 163.036,396.259 163.203,396.396 163.366 C 396.534 163.529,396.872 163.893,397.147 164.175 C 397.422 164.457,397.647 164.744,397.647 164.814 C 397.647 164.884,397.696 164.941,397.755 164.941 C 397.815 164.941,397.899 165.100,397.941 165.294 C 397.984 165.488,398.067 165.647,398.126 165.647 C 398.184 165.647,398.266 165.859,398.308 166.118 C 398.349 166.376,398.429 166.588,398.486 166.588 C 398.542 166.588,398.588 167.197,398.588 167.941 C 398.588 168.685,398.541 169.294,398.484 169.294 C 398.426 169.294,398.344 169.479,398.302 169.706 C 398.259 169.932,398.178 170.118,398.122 170.118 C 398.065 170.118,397.984 170.276,397.941 170.471 C 397.899 170.665,397.815 170.824,397.755 170.824 C 397.696 170.824,397.647 170.900,397.647 170.993 C 397.647 171.210,396.200 172.664,395.884 172.764 C 395.754 172.805,395.647 172.886,395.647 172.944 C 395.647 173.001,395.449 173.085,395.206 173.129 C 394.963 173.174,394.727 173.269,394.681 173.340 C 394.561 173.525,391.080 173.520,390.966 173.334 C 390.920 173.259,390.683 173.161,390.441 173.115 C 390.198 173.070,390.000 172.984,390.000 172.924 C 390.000 172.865,389.907 172.781,389.794 172.738 C 389.479 172.618,388.118 171.229,388.118 171.027 C 388.118 170.929,388.038 170.818,387.941 170.781 C 387.844 170.744,387.765 170.632,387.765 170.533 C 387.765 170.434,387.712 170.353,387.647 170.353 C 387.582 170.353,387.529 170.225,387.529 170.069 C 387.529 169.912,387.463 169.762,387.382 169.735 C 387.273 169.699,387.235 169.221,387.235 167.882 C 387.235 166.544,387.273 166.066,387.382 166.029 C 387.463 166.002,387.529 165.905,387.529 165.814 C 387.529 165.722,387.578 165.647,387.638 165.647 C 387.697 165.647,387.781 165.488,387.824 165.294 C 387.866 165.100,387.950 164.941,388.009 164.941 C 388.069 164.941,388.118 164.869,388.118 164.780 C 388.118 164.526,389.579 163.080,389.924 162.994 C 390.095 162.951,390.235 162.873,390.235 162.820 C 390.235 162.768,390.394 162.690,390.588 162.647 C 390.782 162.604,390.941 162.524,390.941 162.469 C 390.941 162.220,394.597 162.202,394.679 162.450 M390.471 168.000 L 390.471 171.647 391.059 171.647 L 391.647 171.647 391.647 170.059 L 391.647 168.471 392.235 168.471 C 392.748 168.471,392.824 168.501,392.824 168.710 C 392.824 168.841,392.898 168.977,392.989 169.012 C 393.081 169.047,393.187 169.204,393.227 169.361 C 393.266 169.519,393.346 169.647,393.405 169.647 C 393.463 169.647,393.545 169.801,393.586 169.990 C 393.628 170.179,393.738 170.363,393.831 170.398 C 393.924 170.434,394.000 170.544,394.000 170.643 C 394.000 170.742,394.049 170.824,394.110 170.824 C 394.170 170.824,394.256 170.940,394.302 171.083 C 394.475 171.628,395.882 171.974,395.882 171.471 C 395.882 171.374,395.829 171.294,395.765 171.294 C 395.700 171.294,395.647 171.187,395.647 171.055 C 395.647 170.924,395.568 170.786,395.471 170.748 C 395.374 170.711,395.294 170.607,395.294 170.517 C 395.294 170.427,395.242 170.353,395.179 170.353 C 395.115 170.353,395.031 170.224,394.992 170.067 C 394.952 169.910,394.845 169.753,394.754 169.718 C 394.663 169.683,394.588 169.573,394.588 169.474 C 394.588 169.375,394.536 169.294,394.473 169.294 C 394.409 169.294,394.324 169.162,394.284 169.000 C 394.243 168.838,394.163 168.706,394.105 168.706 C 393.840 168.706,394.038 168.457,394.353 168.394 C 394.547 168.355,394.706 168.277,394.706 168.221 C 394.706 168.164,394.777 168.118,394.864 168.118 C 395.183 168.118,395.550 167.661,395.614 167.183 C 395.649 166.921,395.724 166.706,395.780 166.706 C 395.836 166.706,395.882 166.626,395.882 166.529 C 395.882 166.432,395.836 166.353,395.780 166.353 C 395.723 166.353,395.651 166.077,395.618 165.740 C 395.586 165.403,395.499 165.107,395.425 165.083 C 395.351 165.058,395.215 164.962,395.122 164.870 C 395.030 164.778,394.793 164.670,394.595 164.631 C 394.397 164.591,394.235 164.513,394.235 164.456 C 394.235 164.399,393.388 164.353,392.353 164.353 L 390.471 164.353 390.471 168.000 M394.244 165.756 C 394.577 166.088,394.724 166.706,394.471 166.706 C 394.406 166.706,394.353 166.782,394.353 166.874 C 394.353 167.151,394.006 167.412,393.639 167.412 C 393.449 167.412,393.294 167.465,393.294 167.529 C 393.294 167.597,392.941 167.647,392.471 167.647 L 391.647 167.647 391.647 166.529 L 391.647 165.412 392.774 165.412 C 393.862 165.412,393.912 165.423,394.244 165.756 " stroke="none" fill="#fff" fill-rule="evenodd"></path></g></svg>