<svg id="visual" viewBox="0 0 960 250" width="960" height="250" xmlns="http://www.w3.org/2000/svg" xmlns:xlink="http://www.w3.org/1999/xlink" version="1.1"><path d="M0 19L14.5 19.8C29 20.7 58 22.3 87.2 25.2C116.3 28 145.7 32 174.8 31.5C204 31 233 26 262 27.3C291 28.7 320 36.3 349 36C378 35.7 407 27.3 436.2 23.5C465.3 19.7 494.7 20.3 523.8 22.8C553 25.3 582 29.7 611 31.3C640 33 669 32 698 29C727 26 756 21 785.2 20.7C814.3 20.3 843.7 24.7 872.8 25.5C902 26.3 931 23.7 945.5 22.3L960 21L960 0L945.5 0C931 0 902 0 872.8 0C843.7 0 814.3 0 785.2 0C756 0 727 0 698 0C669 0 640 0 611 0C582 0 553 0 523.8 0C494.7 0 465.3 0 436.2 0C407 0 378 0 349 0C320 0 291 0 262 0C233 0 204 0 174.8 0C145.7 0 116.3 0 87.2 0C58 0 29 0 14.5 0L0 0Z" fill="#ffbdbd"></path><path d="M0 56L14.5 59C29 62 58 68 87.2 71C116.3 74 145.7 74 174.8 70.7C204 67.3 233 60.7 262 60.7C291 60.7 320 67.3 349 70.2C378 73 407 72 436.2 66.2C465.3 60.3 494.7 49.7 523.8 49.3C553 49 582 59 611 61.5C640 64 669 59 698 54C727 49 756 44 785.2 44.8C814.3 45.7 843.7 52.3 872.8 56C902 59.7 931 60.3 945.5 60.7L960 61L960 19L945.5 20.3C931 21.7 902 24.3 872.8 23.5C843.7 22.7 814.3 18.3 785.2 18.7C756 19 727 24 698 27C669 30 640 31 611 29.3C582 27.7 553 23.3 523.8 20.8C494.7 18.3 465.3 17.7 436.2 21.5C407 25.3 378 33.7 349 34C320 34.3 291 26.7 262 25.3C233 24 204 29 174.8 29.5C145.7 30 116.3 26 87.2 23.2C58 20.3 29 18.7 14.5 17.8L0 17Z" fill="#be8e8e"></path><path d="M0 149L14.5 146C29 143 58 137 87.2 135.7C116.3 134.3 145.7 137.7 174.8 137.7C204 137.7 233 134.3 262 136C291 137.7 320 144.3 349 142.3C378 140.3 407 129.7 436.2 128.5C465.3 127.3 494.7 135.7 523.8 141.8C553 148 582 152 611 156.5C640 161 669 166 698 162.7C727 159.3 756 147.7 785.2 141.5C814.3 135.3 843.7 134.7 872.8 136.8C902 139 931 144 945.5 146.5L960 149L960 59L945.5 58.7C931 58.3 902 57.7 872.8 54C843.7 50.3 814.3 43.7 785.2 42.8C756 42 727 47 698 52C669 57 640 62 611 59.5C582 57 553 47 523.8 47.3C494.7 47.7 465.3 58.3 436.2 64.2C407 70 378 71 349 68.2C320 65.3 291 58.7 262 58.7C233 58.7 204 65.3 174.8 68.7C145.7 72 116.3 72 87.2 69C58 66 29 60 14.5 57L0 54Z" fill="#806262"></path><path d="M0 196L14.5 200.7C29 205.3 58 214.7 87.2 217.2C116.3 219.7 145.7 215.3 174.8 209.5C204 203.7 233 196.3 262 198.5C291 200.7 320 212.3 349 217.3C378 222.3 407 220.7 436.2 219.3C465.3 218 494.7 217 523.8 217.3C553 217.7 582 219.3 611 219C640 218.7 669 216.3 698 212.7C727 209 756 204 785.2 201.5C814.3 199 843.7 199 872.8 199.8C902 200.7 931 202.3 945.5 203.2L960 204L960 147L945.5 144.5C931 142 902 137 872.8 134.8C843.7 132.7 814.3 133.3 785.2 139.5C756 145.7 727 157.3 698 160.7C669 164 640 159 611 154.5C582 150 553 146 523.8 139.8C494.7 133.7 465.3 125.3 436.2 126.5C407 127.7 378 138.3 349 140.3C320 142.3 291 135.7 262 134C233 132.3 204 135.7 174.8 135.7C145.7 135.7 116.3 132.3 87.2 133.7C58 135 29 141 14.5 144L0 147Z" fill="#473a39"></path><path d="M0 251L14.5 251C29 251 58 251 87.2 251C116.3 251 145.7 251 174.8 251C204 251 233 251 262 251C291 251 320 251 349 251C378 251 407 251 436.2 251C465.3 251 494.7 251 523.8 251C553 251 582 251 611 251C640 251 669 251 698 251C727 251 756 251 785.2 251C814.3 251 843.7 251 872.8 251C902 251 931 251 945.5 251L960 251L960 202L945.5 201.2C931 200.3 902 198.7 872.8 197.8C843.7 197 814.3 197 785.2 199.5C756 202 727 207 698 210.7C669 214.3 640 216.7 611 217C582 217.3 553 215.7 523.8 215.3C494.7 215 465.3 216 436.2 217.3C407 218.7 378 220.3 349 215.3C320 210.3 291 198.7 262 196.5C233 194.3 204 201.7 174.8 207.5C145.7 213.3 116.3 217.7 87.2 215.2C58 212.7 29 203.3 14.5 198.7L0 194Z" fill="#151515"></path></svg>