<svg id="visual" viewBox="0 0 960 250" width="960" height="250" xmlns="http://www.w3.org/2000/svg" xmlns:xlink="http://www.w3.org/1999/xlink" version="1.1"><path d="M0 26L16 27.7C32 29.3 64 32.7 96 31C128 29.3 160 22.7 192 22.3C224 22 256 28 288 28.8C320 29.7 352 25.3 384 28.2C416 31 448 41 480 45.2C512 49.3 544 47.7 576 44.8C608 42 640 38 672 36.3C704 34.7 736 35.3 768 33.2C800 31 832 26 864 25.2C896 24.3 928 27.7 944 29.3L960 31L960 0L944 0C928 0 896 0 864 0C832 0 800 0 768 0C736 0 704 0 672 0C640 0 608 0 576 0C544 0 512 0 480 0C448 0 416 0 384 0C352 0 320 0 288 0C256 0 224 0 192 0C160 0 128 0 96 0C64 0 32 0 16 0L0 0Z" fill="#151515"></path><path d="M0 51L16 52.3C32 53.7 64 56.3 96 53.8C128 51.3 160 43.7 192 45.3C224 47 256 58 288 59.3C320 60.7 352 52.3 384 52.3C416 52.3 448 60.7 480 64C512 67.3 544 65.7 576 61.8C608 58 640 52 672 50.7C704 49.3 736 52.7 768 53.2C800 53.7 832 51.3 864 49.3C896 47.3 928 45.7 944 44.8L960 44L960 29L944 27.3C928 25.7 896 22.3 864 23.2C832 24 800 29 768 31.2C736 33.3 704 32.7 672 34.3C640 36 608 40 576 42.8C544 45.7 512 47.3 480 43.2C448 39 416 29 384 26.2C352 23.3 320 27.7 288 26.8C256 26 224 20 192 20.3C160 20.7 128 27.3 96 29C64 30.7 32 27.3 16 25.7L0 24Z" fill="#3d3232"></path><path d="M0 89L16 90.2C32 91.3 64 93.7 96 89.8C128 86 160 76 192 73.5C224 71 256 76 288 76.5C320 77 352 73 384 73.8C416 74.7 448 80.3 480 84.8C512 89.3 544 92.7 576 91.8C608 91 640 86 672 81.5C704 77 736 73 768 72.2C800 71.3 832 73.7 864 74C896 74.3 928 72.7 944 71.8L960 71L960 42L944 42.8C928 43.7 896 45.3 864 47.3C832 49.3 800 51.7 768 51.2C736 50.7 704 47.3 672 48.7C640 50 608 56 576 59.8C544 63.7 512 65.3 480 62C448 58.7 416 50.3 384 50.3C352 50.3 320 58.7 288 57.3C256 56 224 45 192 43.3C160 41.7 128 49.3 96 51.8C64 54.3 32 51.7 16 50.3L0 49Z" fill="#695151"></path><path d="M0 129L16 128.5C32 128 64 127 96 120.7C128 114.3 160 102.7 192 102.7C224 102.7 256 114.3 288 118.5C320 122.7 352 119.3 384 117.7C416 116 448 116 480 116C512 116 544 116 576 119.3C608 122.7 640 129.3 672 128.5C704 127.7 736 119.3 768 116C800 112.7 832 114.3 864 112.7C896 111 928 106 944 103.5L960 101L960 69L944 69.8C928 70.7 896 72.3 864 72C832 71.7 800 69.3 768 70.2C736 71 704 75 672 79.5C640 84 608 89 576 89.8C544 90.7 512 87.3 480 82.8C448 78.3 416 72.7 384 71.8C352 71 320 75 288 74.5C256 74 224 69 192 71.5C160 74 128 84 96 87.8C64 91.7 32 89.3 16 88.2L0 87Z" fill="#987373"></path><path d="M0 159L16 161.5C32 164 64 169 96 169.8C128 170.7 160 167.3 192 168.5C224 169.7 256 175.3 288 174C320 172.7 352 164.3 384 164.8C416 165.3 448 174.7 480 175.2C512 175.7 544 167.3 576 166C608 164.7 640 170.3 672 176.2C704 182 736 188 768 192.2C800 196.3 832 198.7 864 196.5C896 194.3 928 187.7 944 184.3L960 181L960 99L944 101.5C928 104 896 109 864 110.7C832 112.3 800 110.7 768 114C736 117.3 704 125.7 672 126.5C640 127.3 608 120.7 576 117.3C544 114 512 114 480 114C448 114 416 114 384 115.7C352 117.3 320 120.7 288 116.5C256 112.3 224 100.7 192 100.7C160 100.7 128 112.3 96 118.7C64 125 32 126 16 126.5L0 127Z" fill="#ca9797"></path><path d="M0 251L16 251C32 251 64 251 96 251C128 251 160 251 192 251C224 251 256 251 288 251C320 251 352 251 384 251C416 251 448 251 480 251C512 251 544 251 576 251C608 251 640 251 672 251C704 251 736 251 768 251C800 251 832 251 864 251C896 251 928 251 944 251L960 251L960 179L944 182.3C928 185.7 896 192.3 864 194.5C832 196.7 800 194.3 768 190.2C736 186 704 180 672 174.2C640 168.3 608 162.7 576 164C544 165.3 512 173.7 480 173.2C448 172.7 416 163.3 384 162.8C352 162.3 320 170.7 288 172C256 173.3 224 167.7 192 166.5C160 165.3 128 168.7 96 167.8C64 167 32 162 16 159.5L0 157Z" fill="#ffbdbd"></path></svg>